<?xml version="1.0" encoding="utf-8"?>
<!-- Generator: Adobe Illustrator 27.5.0, SVG Export Plug-In . SVG Version: 6.00 Build 0)  -->
<svg version="1.1" xmlns="http://www.w3.org/2000/svg" xmlns:xlink="http://www.w3.org/1999/xlink" x="0px" y="0px"
	 viewBox="0 0 500 500" style="enable-background:new 0 0 500 500;" xml:space="preserve">
<g id="BACKGROUND">
	<rect style="fill:#F1BFC9;" width="500" height="500"/>
</g>
<g id="OBJECTS">
	<g>
		<path style="fill:#FFFDFF;" d="M79.006,237.556c-0.365,0-0.73-0.033-1.092-0.1H43.506c-3.313,0-6-2.686-6-6v-14.564
			c-1.334-0.449-2.479-1.357-3.219-2.579c-0.914-1.51-1.117-3.345-0.556-5.018l3.775-11.241v-65.918
			c0-21.384,6.832-42.304,19.34-59.524C44.529,61.386,43.04,56.162,43.41,52.237c0.268-2.83,1.873-5.281,4.405-6.724
			c1.481-0.843,3.101-1.271,4.817-1.271c5.362,0,10.896,4.192,17.532,13.422c7.062-6.495,15.067-12.005,23.63-16.264
			c-5.228-8.981-6.68-14.698-5.008-19.019c1.012-2.615,3.19-4.528,5.978-5.249c0.796-0.206,1.611-0.31,2.424-0.31
			c6.235,0,11.197,5.413,15.775,17.387c8.369-2.202,17.013-3.315,25.772-3.315c27.043,0,52.465,10.529,71.583,29.647
			c19.119,19.129,29.647,44.554,29.647,71.592v99.32c0,3.314-2.686,6-6,6H80.098C79.737,237.523,79.371,237.556,79.006,237.556z"/>
		<g>
			<path style="fill:#6F9AFF;" d="M233.336,132.136v99.32H42.876v-99.32c0-22.88,8.07-43.88,21.52-60.31
				c1.34-1.64,2.74-3.24,4.2-4.79c9.24-9.87,20.56-17.77,33.27-23c2.19-0.9,4.42-1.73,6.69-2.46c9.3-3.04,19.23-4.68,29.55-4.68
				c26.3,0,50.11,10.66,67.34,27.89C222.676,82.026,233.336,105.836,233.336,132.136z"/>
			<g>
				<path style="fill:#FFCA63;" d="M144.486,44.986c-8.74,0-15.83,7.09-15.83,15.83c0,0.26,0.01,0.51,0.02,0.76h6.4
					c-0.02-0.25-0.03-0.51-0.03-0.76c0-5.22,4.23-9.45,9.44-9.45c5.22,0,9.45,4.23,9.45,9.45c0,0.25-0.01,0.51-0.03,0.76h6.39
					c0.01-0.25,0.02-0.5,0.02-0.76C160.316,52.076,153.236,44.986,144.486,44.986z"/>
				<path style="fill:#FF80A6;" d="M89.267,128.536c-3.74-4.59-9.51-6.55-14.96-5.61c-2.6,0.45-5.12,1.55-7.31,3.33
					c-6.78,5.51-7.8,15.49-2.29,22.27c0.17,0.2,0.33,0.38,0.5,0.57l4.96-4.04c-0.17-0.18-0.34-0.37-0.5-0.57
					c-3.3-4.05-2.69-10,1.36-13.29c2.5-2.04,5.74-2.58,8.62-1.73h0.01c1.78,0.51,3.4,1.56,4.66,3.1c0.16,0.19,0.31,0.4,0.46,0.61
					l4.95-4.04C89.576,128.936,89.426,128.736,89.267,128.536z"/>
				<path style="fill:#FFF0E1;" d="M158.416,161.136l-0.94-0.33l-2.64-0.92c-0.07,0.24-0.14,0.49-0.23,0.73
					c-1.62,4.64-6.5,7.2-11.17,6.04c-0.29-0.07-0.58-0.15-0.86-0.25c-4.93-1.73-7.52-7.12-5.79-12.04c0.08-0.24,0.18-0.48,0.28-0.71
					l-6.03-2.11c-0.1,0.23-0.19,0.46-0.27,0.71c-2.89,8.25,1.44,17.28,9.7,20.17c0.84,0.29,1.68,0.51,2.53,0.65
					c4.37,0.77,8.77-0.36,12.19-2.91c0.48-0.37,0.95-0.76,1.4-1.18l0.01-0.01c1.77-1.68,3.18-3.78,4.04-6.25
					c0.09-0.25,0.16-0.49,0.24-0.73L158.416,161.136z"/>
				<path style="fill:#FFCA63;" d="M83.886,228.206c-3.63-7.95-13.01-11.47-20.97-7.83c-4.73,2.15-7.89,6.35-8.9,11.08h6.62
					c0.85-2.26,2.56-4.2,4.93-5.28c4.75-2.17,10.35-0.07,12.52,4.68c0.09,0.19,0.17,0.39,0.25,0.6c0.01,0.03,0.03,0.07,0.04,0.1
					l0.22-0.1l5.59-2.55C84.087,228.676,83.996,228.446,83.886,228.206z"/>
				<path style="fill:#FFF0E1;" d="M225.776,218.776c-0.11-0.19-0.22-0.38-0.34-0.57c-2.18-3.57-5.58-5.98-9.35-7
					c-0.58-0.16-1.17-0.29-1.77-0.37c-3.35-0.52-6.89,0.04-10.08,1.82c-0.04,0.02-0.08,0.04-0.12,0.07c-0.18,0.1-0.36,0.2-0.53,0.31
					l1.07,1.92l0.15,0.27l0.16,0.29l1.74,3.12c0.2-0.14,0.43-0.28,0.65-0.4c3.99-2.22,8.9-1.25,11.76,2.09
					c0.41,0.47,0.77,0.99,1.09,1.55c1.73,3.1,1.52,6.76-0.23,9.58h7C228.316,227.396,228.026,222.806,225.776,218.776z"/>
			</g>
			<g>
				<path style="fill:#AA4346;" d="M71.638,78.092c0,0,18.043-7.489,40.17-23.83c0,0,18.043,14.298,38.128,12.936l16.121,45.485
					c1.692,4.772-0.362,10.064-4.831,12.446l-51.876,27.649c-4.31,2.297-9.642,1.228-12.733-2.553l-29.746-36.388
					C66.872,113.836,70.957,98.857,71.638,78.092z"/>
				<g>
					<path style="fill:none;stroke:#AA4346;stroke-linecap:round;stroke-linejoin:round;stroke-miterlimit:10;" d="M113.34,59.879
						c0,0-27.574-34.383-17.702-36.936S113.34,59.879,113.34,59.879z"/>
					<path style="fill:none;stroke:#AA4346;stroke-linecap:round;stroke-linejoin:round;stroke-miterlimit:10;" d="M76.907,81.744
						c0,0-35.611-25.97-26.75-31.017C59.017,45.68,76.907,81.744,76.907,81.744z"/>
					
						<path style="fill:none;stroke:#FFF0E1;stroke-width:0.25;stroke-linecap:round;stroke-linejoin:round;stroke-miterlimit:10;" d="
						M72.466,77.595c-0.186,1.187-0.162,2.408,0.073,3.587c0.124,0.622,0.326,1.267,0.799,1.69c0.77,0.689,2.026,0.539,2.869-0.058
						c0.843-0.597,1.371-1.532,1.872-2.436c-0.166,1.279-0.331,2.595-0.013,3.845c0.317,1.25,1.233,2.437,2.5,2.678
						c1.026,0.196,2.09-0.262,2.869-0.958c0.779-0.697,1.323-1.611,1.856-2.51c-0.167,1.319-0.331,2.687,0.066,3.956
						c0.397,1.269,1.521,2.414,2.851,2.386c1.776-0.037,2.839-1.937,3.534-3.572c0.4,1.447,0.294,2.987,0.568,4.463
						c0.274,1.476,1.101,3.025,2.548,3.428c1.11,0.309,2.32-0.153,3.19-0.909c0.869-0.756,1.464-1.771,2.043-2.767
						c0.122,1.389,0.261,2.798,0.776,4.093c0.515,1.295,1.464,2.483,2.771,2.967c0.494,0.183,1.04,0.26,1.553,0.136
						c1.565-0.379,2.112-2.285,2.379-3.873c0.568,1.914,1.202,3.935,2.703,5.252c0.788,0.691,2.151,1.067,2.785,0.233
						c0.247-0.324,0.307-0.749,0.349-1.154c0.099-0.942,0.148-1.888,0.147-2.835c0.784,0.476,1.571,0.319,2.479,0.193
						c0.908-0.127,1.777-0.806,1.904-1.715c0.155-1.112-0.771-2.069-1.698-2.701c-1.148-0.782-2.425-1.374-3.763-1.745
						c1.589-0.297,3.494,0.553,4.707-0.515c0.743-0.655,0.844-1.836,0.441-2.741c-0.403-0.905-1.211-1.568-2.067-2.066
						c-1.192-0.693-2.533-1.131-3.904-1.276c1.292-0.185,2.656-0.401,3.658-1.237c1.002-0.836,1.413-2.52,0.489-3.442
						c-1.006-1.004-2.857-0.541-3.933-1.471c1.088-0.293,2.207-0.601,3.101-1.286c0.894-0.685,1.519-1.85,1.234-2.94
						c-0.241-0.921-1.077-1.592-1.979-1.896s-1.875-0.301-2.828-0.295c0.822-0.615,1.839-0.895,2.754-1.359
						c0.915-0.464,1.799-1.229,1.91-2.248c0.128-1.169-0.85-2.229-1.965-2.604c-1.115-0.375-2.329-0.23-3.495-0.081
						c1.147-0.48,2.294-0.96,3.44-1.44c0.67-0.28,1.409-0.63,1.657-1.312c0.228-0.624-0.06-1.351-0.558-1.791
						c-0.498-0.44-1.165-0.637-1.822-0.736c-0.875-0.131-1.773-0.108-2.64,0.069c0.814-0.497,1.551-1.12,2.178-1.839
						c0.276-0.317,0.546-0.705,0.483-1.121c-0.12-0.796-1.209-0.914-2.009-0.826"/>
					<polygon style="fill:#3C2238;" points="71.638,78.092 113.851,96.985 111.808,54.262 					"/>
					
						<line style="fill:none;stroke:#3C2238;stroke-width:0.5;stroke-linecap:round;stroke-linejoin:round;stroke-miterlimit:10;" x1="111.298" y1="93.07" x2="140.064" y2="135.964"/>
					<path style="fill:#3C2238;" d="M123.383,97.666c0,1.316-1.067,2.383-2.383,2.383c-1.316,0-2.383-1.067-2.383-2.383
						c0-1.316,1.067-2.383,2.383-2.383C122.316,95.283,123.383,96.35,123.383,97.666z"/>
					<path style="fill:#3C2238;" d="M129.085,105.921c0,1.316-1.067,2.383-2.383,2.383c-1.316,0-2.383-1.067-2.383-2.383
						c0-1.316,1.067-2.383,2.383-2.383C128.018,103.538,129.085,104.605,129.085,105.921z"/>
					<circle style="fill:#3C2238;" cx="131.893" cy="114.517" r="2.383"/>
				</g>
			</g>
			<g>
				<path style="fill:#FF8878;" d="M233.336,145.956v69.6l-7.9,2.65l-6.32,2.12l-10.81,3.62c-1.1,0.36-2.3-0.16-2.76-1.22
					l-1.97-4.51c-0.48-1.1-0.02-2.36,1.04-2.9l0.08-0.04l0.01-0.01l0.1-0.04l0.34-0.18l-0.2-0.45l-0.83-1.87l-8.86-19.93l-1.3,22.23
					l-0.03,0.55l0.89-0.08c0.17-0.02,0.33-0.01,0.49,0.01h0.01c0.97,0.13,1.76,0.85,1.93,1.86l1.08,6.72
					c0.21,1.33-0.77,2.54-2.12,2.59l-56.67,2.32c-1.3,0.06-2.36-0.99-2.33-2.27l0.13-7.14c0.02-1.18,0.95-2.11,2.08-2.2h0.01
					c0.15-0.01,0.32,0.01,0.49,0.03l0.03-0.5l1.42-20.5l0.12-1.64l1.51-21.7l0.44-6.42l0.77-11.03l0.06-1.01l0.57-8.19l79.13-22.49
					c0.02-0.01,0.02-0.01,0.02-0.01l2.65,6.25l0.41,0.96L233.336,145.956z"/>
				<g>
					<path style="fill:#3C2238;" d="M223.97,123.938c-0.496,0.398-16.543,12.989-41.193,20.625
						c-25.042,7.752-37.937,1.862-37.937,1.862L223.97,123.938z"/>
					<g>
						<g>
							<g>
								<path style="fill:#3C2238;" d="M227.044,131.138c-5.26,4.278-10.923,8.08-16.876,11.322
									c-0.319,0.196-0.641,0.361-0.953,0.528c-6.778,3.637-13.933,6.578-21.298,8.731c-0.481,0.144-0.96,0.278-1.439,0.413
									c-0.323,0.092-0.644,0.174-0.965,0.256c-7.939,2.139-16.476,3.513-25.426,4.089c-0.337,0.026-0.682,0.04-1.026,0.055
									c-0.337,0.026-0.672,0.043-1.007,0.059c-4.382,0.208-9.198,0.139-13.851-0.962l0.067-1.016
									c5.306,1.291,10.895,1.168,15.756,0.866c9.789-0.627,19.075-2.22,27.612-4.711c14.175-4.16,27.554-11.233,38.996-20.595
									L227.044,131.138z"/>
							</g>
							<g>
								<path style="fill:#3C2238;" d="M141.37,196.42l0.116-1.643c9.174-10.661,15.106-24.238,16.568-38.186
									c0.028-0.189,0.044-0.371,0.063-0.562c0.019-0.274,0.268-0.478,0.54-0.449c0.274,0.019,0.478,0.268,0.449,0.54
									c-0.016,0.141-0.029,0.271-0.045,0.412C157.561,171.183,151.199,185.423,141.37,196.42z"/>
							</g>
							<g>
								<path style="fill:#3C2238;" d="M233.336,154.086v1.04c-0.01,0-0.01,0-0.02,0c-8.78-2.27-17.08-6.42-24.1-12.14
									c-0.04-0.03-0.09-0.07-0.13-0.1c-0.21-0.18-0.24-0.49-0.07-0.7c0.18-0.21,0.49-0.25,0.71-0.08
									c0.14,0.12,0.28,0.24,0.44,0.35C216.946,147.926,224.906,151.876,233.336,154.086z"/>
							</g>
							<g>
								<path style="fill:#3C2238;" d="M193.912,179.342c-0.078-0.02-0.156-0.044-0.234-0.073c-1.434-0.531-1.884-2.292-2.099-3.138
									l-6.111-23.932c-0.068-0.268,0.093-0.54,0.361-0.608c0.268-0.068,0.539,0.093,0.608,0.361l6.112,23.932
									c0.278,1.09,0.65,2.141,1.478,2.448c0.583,0.218,1.267,0.018,2.037-0.242l1.093-0.369c0.783-0.265,1.416-0.818,1.782-1.558
									c0.366-0.74,0.422-1.58,0.156-2.363c-1.114-3.284-2.187-6.904-3.282-11.066c-0.071-0.267,0.089-0.54,0.356-0.61
									c0.268-0.07,0.54,0.089,0.61,0.356c1.089,4.139,2.156,7.737,3.262,10.999c0.352,1.037,0.278,2.148-0.206,3.128
									c-0.485,0.98-1.322,1.712-2.359,2.062l-1.093,0.369C195.544,179.319,194.723,179.552,193.912,179.342z"/>
							</g>
						</g>
						<g>
							<path style="fill:#3C2238;" d="M195.096,157.417c-0.353,1.365-1.746,2.185-3.111,1.832c-1.365-0.353-2.185-1.747-1.832-3.112
								c0.353-1.365,1.747-2.185,3.112-1.832C194.63,154.659,195.45,156.052,195.096,157.417z"/>
						</g>
						<g>
							<path style="fill:#3C2238;" d="M214.316,210.836l19.02-7.63v1.08l-17.25,6.92l-10.75,4.31c-0.11,0.04-0.21,0.04-0.31,0.02
								c-0.02-0.01-0.04-0.01-0.06-0.02c-0.11-0.05-0.21-0.13-0.26-0.25c-0.01-0.01-0.02-0.02-0.02-0.03
								c-0.04-0.1-0.05-0.19-0.03-0.28c0.03-0.16,0.14-0.3,0.29-0.36l0.01-0.01L214.316,210.836z"/>
						</g>
						<g>
							<path style="fill:#3C2238;" d="M139.787,217.899c-0.209-0.054-0.367-0.24-0.374-0.467c-0.01-0.276,0.206-0.507,0.482-0.517
								l54.904-1.922c0.277-0.011,0.507,0.207,0.517,0.482c0.01,0.276-0.206,0.507-0.482,0.517l-54.904,1.922
								C139.88,217.917,139.832,217.911,139.787,217.899z"/>
						</g>
					</g>
				</g>
			</g>
			<g>
				<g>
					
						<ellipse transform="matrix(0.1607 -0.987 0.987 0.1607 74.2392 237.6017)" style="fill:none;stroke:#3C2238;stroke-width:0.5368;stroke-miterlimit:10;" cx="176.821" cy="75.151" rx="9.457" ry="9.457"/>
					<g>
						<path style="fill:#FFCA63;" d="M191.134,96.203l-5.374-2.001l4.889,3.001c-1.444,2.719-3.986,5.696-8.448,7.157l-2.961-7.003
							l1.727,7.358c-1.735,0.42-3.728,0.629-6.019,0.54c-2.001-0.081-3.712-0.411-5.172-0.92l2.8-7.875l-3.978,7.399
							c-4.663-2.154-6.414-6.35-7.028-9.771l7.641-2.227l-7.802,1.202c-0.307-2.429-0.081-4.252-0.081-4.252h11.885l0.363,0.008
							v2.461c0,1.864,1.509,3.381,3.381,3.381c0.936,0,1.775-0.379,2.388-0.992c0.613-0.613,0.992-1.46,0.992-2.388v-2.235
							l12.151,2.412C192.489,91.459,192.296,93.605,191.134,96.203z"/>
						
							<path style="fill:none;stroke:#3C2238;stroke-width:0.5368;stroke-linecap:round;stroke-linejoin:round;stroke-miterlimit:10;" d="
							M180.339,83.967v5.078v2.233c0,0.934-0.381,1.782-0.993,2.394c-0.612,0.612-1.455,0.988-2.389,0.988
							c-1.868,0-3.382-1.514-3.382-3.382V88.82v-4.761"/>
					</g>
				</g>
				<path style="fill:#3C2238;" d="M180.065,63.195c0,1.46-1.184,2.644-2.644,2.644c-1.46,0-2.644-1.184-2.644-2.644
					c0-1.46,1.184-2.644,2.644-2.644C178.881,60.552,180.065,61.735,180.065,63.195z"/>
			</g>
			<g>
				<g>
					
						<ellipse transform="matrix(0.2288 -0.9735 0.9735 0.2288 66.2003 273.0163)" style="fill:none;stroke:#3C2238;stroke-width:0.5368;stroke-miterlimit:10;" cx="205.417" cy="94.725" rx="9.457" ry="9.457"/>
					<g>
						<path style="fill:#FFCA63;" d="M219.729,115.778l-5.373-2.001l4.889,3.001c-1.444,2.719-3.986,5.696-8.448,7.157l-2.961-7.003
							l1.727,7.358c-1.735,0.42-3.728,0.629-6.019,0.541c-2.001-0.081-3.711-0.411-5.172-0.92l2.8-7.875l-3.978,7.399
							c-4.663-2.154-6.414-6.35-7.028-9.771l7.641-2.227l-7.802,1.202c-0.307-2.429-0.081-4.252-0.081-4.252h11.885l0.363,0.008
							v2.461c0,1.864,1.509,3.381,3.381,3.381c0.936,0,1.775-0.379,2.388-0.992c0.613-0.613,0.993-1.46,0.993-2.388v-2.235
							l12.151,2.412C221.085,111.033,220.891,113.18,219.729,115.778z"/>
						
							<path style="fill:none;stroke:#3C2238;stroke-width:0.5368;stroke-linecap:round;stroke-linejoin:round;stroke-miterlimit:10;" d="
							M208.935,103.541v5.078v2.233c0,0.934-0.381,1.782-0.993,2.394c-0.612,0.612-1.455,0.988-2.389,0.988
							c-1.868,0-3.382-1.514-3.382-3.382v-2.459v-4.761"/>
					</g>
				</g>
				<path style="fill:#3C2238;" d="M208.66,82.77c0,1.46-1.184,2.644-2.644,2.644c-1.46,0-2.644-1.184-2.644-2.644
					s1.184-2.644,2.644-2.644C207.477,80.126,208.66,81.31,208.66,82.77z"/>
			</g>
			<g>
				<polygon style="fill:#AA4346;" points="125.335,166.146 122.184,224.476 113.219,223.049 38.789,211.205 57.743,154.772 				"/>
				<polygon style="fill:#3C2238;" points="125.335,166.146 122.184,224.476 113.219,223.049 				"/>
				<polyline style="fill:none;stroke:#3C2238;stroke-width:0.8248;stroke-miterlimit:10;" points="50.651,176.251 81.396,197.872 
					121.549,189.308 				"/>
				<path style="fill:#FFCA63;" d="M75.96,179.514l0.039-0.178c0.43-1.973,2.317-3.274,4.314-2.975l13.163,1.97
					c2.146,0.321,3.598,2.357,3.203,4.49l-0.012,0.067c-0.374,2.019-2.272,3.385-4.306,3.099l-13.189-1.859
					C76.962,183.817,75.484,181.693,75.96,179.514z"/>
			</g>
			<g>
				<g>
					<path style="fill:#FFF0E1;" d="M102.772,148.709l-2.564,1.193c-1.122,0.522-2.024,1.424-2.546,2.546l-1.194,2.564
						c-0.127,0.272-0.513,0.272-0.64,0l-1.194-2.564c-0.522-1.122-1.424-2.024-2.546-2.546l-2.564-1.193
						c-0.272-0.127-0.272-0.513,0-0.64l2.564-1.194c1.122-0.523,2.024-1.424,2.546-2.546l1.194-2.564
						c0.126-0.272,0.513-0.272,0.64,0l1.194,2.564c0.523,1.122,1.424,2.024,2.546,2.546l2.564,1.194
						C103.044,148.196,103.044,148.583,102.772,148.709z"/>
				</g>
				<g>
					<path style="fill:#FFF0E1;" d="M181.095,125.56l-2.564,1.193c-1.122,0.522-2.024,1.424-2.546,2.546l-1.194,2.564
						c-0.127,0.272-0.513,0.272-0.64,0l-1.194-2.564c-0.522-1.122-1.424-2.024-2.546-2.546l-2.564-1.193
						c-0.272-0.127-0.272-0.513,0-0.64l2.564-1.194c1.122-0.522,2.024-1.424,2.546-2.546l1.194-2.564
						c0.127-0.272,0.513-0.272,0.64,0l1.194,2.564c0.523,1.122,1.424,2.024,2.546,2.546l2.564,1.194
						C181.367,125.047,181.367,125.434,181.095,125.56z"/>
				</g>
				<g>
					<path style="fill:#FFF0E1;" d="M97.174,60.735l-2.564,1.194c-1.122,0.522-2.024,1.424-2.546,2.546l-1.194,2.564
						c-0.127,0.272-0.513,0.272-0.64,0l-1.194-2.564c-0.522-1.122-1.424-2.024-2.546-2.546l-2.564-1.194
						c-0.272-0.127-0.272-0.513,0-0.64l2.564-1.194c1.122-0.523,2.024-1.424,2.546-2.546l1.194-2.564
						c0.127-0.272,0.513-0.272,0.64,0l1.194,2.564c0.523,1.122,1.424,2.024,2.546,2.546l2.564,1.194
						C97.446,60.222,97.446,60.608,97.174,60.735z"/>
				</g>
				<g>
					<path style="fill:#FFF0E1;" d="M201.003,71.969l-2.564,1.194c-1.122,0.522-2.024,1.424-2.546,2.546l-1.194,2.564
						c-0.127,0.272-0.513,0.272-0.64,0l-1.194-2.564c-0.522-1.122-1.424-2.024-2.546-2.546l-2.564-1.194
						c-0.272-0.127-0.272-0.513,0-0.64l2.564-1.194c1.122-0.522,2.024-1.424,2.546-2.546l1.194-2.564
						c0.127-0.272,0.513-0.272,0.64,0l1.194,2.564c0.523,1.122,1.424,2.024,2.546,2.546l2.564,1.194
						C201.275,71.456,201.275,71.842,201.003,71.969z"/>
				</g>
				<g>
					<path style="fill:#FFF0E1;" d="M130.032,221.579l-2.564,1.193c-1.122,0.523-2.024,1.424-2.546,2.546l-1.194,2.564
						c-0.127,0.272-0.513,0.272-0.64,0l-1.194-2.564c-0.522-1.122-1.424-2.024-2.546-2.546l-2.564-1.193
						c-0.272-0.127-0.272-0.513,0-0.64l2.564-1.194c1.122-0.523,2.024-1.424,2.546-2.546l1.194-2.564
						c0.127-0.272,0.513-0.272,0.64,0l1.194,2.564c0.523,1.122,1.424,2.024,2.546,2.546l2.564,1.194
						C130.303,221.066,130.303,221.452,130.032,221.579z"/>
				</g>
			</g>
		</g>
	</g>
	<g>
		<path style="fill:#FFFDFF;" d="M276.454,233.47c-3.314,0-6-2.687-6-6v-99.32c0-3.57,0.189-7.17,0.563-10.702
			c0.295-2.869,0.726-5.763,1.278-8.583c3.149-16.362,10.425-31.869,21.035-44.827c1.446-1.768,2.952-3.486,4.476-5.103
			c9.845-10.516,22.074-18.97,35.354-24.435c2.436-1.001,4.837-1.884,7.137-2.624c10.074-3.293,20.644-4.968,31.386-4.968
			c16.298,0,32.422,3.951,46.791,11.446l3.959-1.027c0,0,0.499-0.138,0.532-0.147l6.934-1.796c0.495-0.128,1-0.191,1.503-0.191
			c1.094,0,2.178,0.299,3.127,0.879c1.387,0.847,2.371,2.22,2.728,3.806l2.314,10.304l0.1,0.42l0.72,3.195
			c1.006,0.928,1.969,1.852,2.876,2.759c19.119,19.13,29.647,44.555,29.647,71.592v99.32c0,3.313-2.686,6-6,6H276.454z"/>
		<g>
			<path style="fill:#FF80A6;" d="M466.956,128.15v99.32h-190.46v-99.32c0-3.4,0.18-6.76,0.53-10.07c0.28-2.72,0.68-5.41,1.2-8.06
				c3.04-15.79,9.98-30.2,19.79-42.18c1.34-1.64,2.74-3.24,4.2-4.79c9.24-9.87,20.56-17.77,33.27-23c2.19-0.9,4.42-1.73,6.69-2.46
				c9.3-3.04,19.23-4.68,29.55-4.68c26.3,0,50.11,10.66,67.34,27.89C456.296,78.04,466.956,101.85,466.956,128.15z"/>
			<g>
				<g>
					<path style="fill:#FFCA63;" d="M370.326,50.43c-4.82-7.29-14.66-9.29-21.97-4.46c-0.22,0.14-0.42,0.29-0.63,0.44l3.53,5.34
						c0.2-0.16,0.41-0.31,0.62-0.45c4.37-2.88,10.24-1.69,13.11,2.66c2.88,4.35,1.67,10.22-2.7,13.1c-0.21,0.14-0.43,0.28-0.65,0.4
						l3.52,5.33c0.22-0.13,0.43-0.26,0.65-0.4C373.116,67.56,375.146,57.73,370.326,50.43z"/>
					<path style="fill:#AA4346;" d="M461.886,191.81c-1.34-8.66-9.42-14.61-18.07-13.27c-8.64,1.33-14.56,9.44-13.22,18.1
						c0.04,0.26,0.09,0.5,0.13,0.75l6.33-0.98c-0.06-0.24-0.11-0.5-0.15-0.74c-0.79-5.18,2.74-10.01,7.89-10.81
						c5.16-0.8,9.98,2.75,10.78,7.92c0.04,0.25,0.07,0.51,0.09,0.76l6.31-0.97C461.956,192.32,461.926,192.07,461.886,191.81z"/>
					<path style="fill:#F1BFC9;" d="M370.136,191.62c-8.5-2.13-17.12,3.01-19.25,11.5c-2.12,8.48,3.05,17.08,11.55,19.21
						c0.26,0.07,0.5,0.12,0.75,0.17l1.55-6.21c-0.24-0.04-0.5-0.09-0.74-0.16c-5.08-1.27-8.17-6.4-6.9-11.46
						c1.27-5.06,6.41-8.13,11.49-6.86c0.24,0.06,0.49,0.13,0.73,0.21l1.55-6.19C370.626,191.76,370.386,191.69,370.136,191.62z"/>
					<path style="fill:#AA4346;" d="M298.866,121.16c-2.12-8.51-10.7-13.69-19.19-11.58c-0.5,0.12-0.98,0.27-1.45,0.44
						c-0.52,2.65-0.92,5.34-1.2,8.06c1.14-1.08,2.56-1.88,4.19-2.29c5.07-1.26,10.2,1.83,11.46,6.91c0.06,0.24,0.12,0.5,0.16,0.75
						l6.2-1.55C298.986,121.66,298.936,121.41,298.866,121.16z"/>
				</g>
				<g>
					<path style="fill:#F1BFC9;" d="M453.394,138.71c0.389,1.716-0.707,3.425-2.428,3.794l-1.359,0.292l0.013,0.059l2.624,11.649
						l2.701,11.96l-41.436,8.897l-5.521-25.714l-8.611,1.051c-1.557,0.181-3.068-0.62-3.786-2.01l-14.92-28.953l-1.385-54.135
						l-0.017-0.508l-0.265-10.284l23.261-6.038l0.485-0.124l2.703-0.703l0.485-0.125l18.098-4.694l0.482-0.134l2.732-0.709
						l0.485-0.124l3.711-0.96l2.315,10.304l0.115,0.487l7.744,34.401l0.082,0.381L453.394,138.71z"/>
					<polygon style="fill:#3C2238;" points="450.605,142.581 449.62,142.854 408.91,153.937 408.047,149.919 					"/>
					<path style="fill:#3C2238;" d="M387.63,59.093c0.281,1.31-0.553,2.6-1.862,2.881c-1.31,0.281-2.6-0.553-2.881-1.862
						s0.553-2.599,1.862-2.881C386.059,56.949,387.349,57.783,387.63,59.093z"/>
					<g>
						<g>
							<polygon style="fill:#3C2238;" points="433.874,51.985 429.611,53.044 429.126,53.168 426.826,53.744 426.341,53.868 
								413.526,57.06 413.041,57.184 407.777,58.488 407.293,58.613 405.012,59.184 404.525,59.299 386.401,63.825 385.917,63.949 
								379.285,65.598 379.268,65.09 385.947,63.421 386.189,63.359 404.42,58.81 404.907,58.695 407.207,58.12 407.692,57.995 
								426.236,53.38 426.721,53.255 429.041,52.675 429.526,52.55 433.759,51.498 							"/>
						</g>
						<g>
							<path style="fill:#3C2238;" d="M387.894,101.596c-1.084,0.233-2.181,0.011-3.09-0.624c-0.909-0.635-1.495-1.589-1.649-2.687
								l-3.149-22.428c-0.02-0.136,0.078-0.268,0.212-0.282c0.137-0.019,0.264,0.076,0.282,0.213l3.149,22.427
								c0.135,0.959,0.647,1.792,1.441,2.347c0.793,0.554,1.752,0.748,2.698,0.545c1.754-0.377,2.937-2.063,2.693-3.84
								l-4.613-33.638c-0.019-0.137,0.071-0.265,0.213-0.282c0.137-0.018,0.263,0.077,0.282,0.214l4.612,33.638
								C391.256,99.234,389.902,101.165,387.894,101.596z"/>
						</g>
						<g>
							<polygon style="fill:#3C2238;" points="402.749,48.645 405.012,59.184 404.525,59.299 402.264,48.769 							"/>
						</g>
						<g>
							<polygon style="fill:#3C2238;" points="405.936,47.817 407.692,57.995 407.777,58.488 407.293,58.613 407.207,58.12 
								405.452,47.942 							"/>
						</g>
						<g>
							<polygon style="fill:#3C2238;" points="424.517,42.989 426.826,53.744 426.341,53.868 424.034,43.123 							"/>
						</g>
						<g>
							<polygon style="fill:#3C2238;" points="427.733,42.155 429.526,52.55 429.611,53.044 429.126,53.168 429.041,52.675 
								427.249,42.28 							"/>
						</g>
						<g>
							<path style="fill:#3C2238;" d="M441.566,86.852c-0.047,0.01-0.096,0.007-0.143-0.012
								c-13.2-5.152-23.807-16.234-28.376-29.645c-0.045-0.131,0.025-0.273,0.156-0.317c0.128-0.053,0.273,0.025,0.317,0.156
								c4.522,13.274,15.022,24.242,28.085,29.341c0.129,0.05,0.193,0.195,0.142,0.324C441.714,86.78,441.645,86.835,441.566,86.852
								z"/>
						</g>
						<g>
							<path style="fill:#3C2238;" d="M449.019,143.118c-0.001,0-0.002,0-0.003,0.001c-0.068,0.013-0.134-0.032-0.146-0.1
								l-10.866-57.707c-0.012-0.067,0.031-0.131,0.097-0.145c0.001,0,0.002,0,0.003-0.001c0.068-0.013,0.134,0.032,0.146,0.1
								l10.866,57.706C449.128,143.039,449.085,143.104,449.019,143.118z"/>
						</g>
					</g>
					<path style="fill:#FFF0E1;" d="M408.688,163.858l45.599-9.791l2.001,9.319c0.375,1.746-0.737,3.466-2.483,3.841l-39.399,8.459
						c-1.763,0.378-3.495-0.758-3.85-2.525L408.688,163.858z"/>
				</g>
				<g>
					<g>
						<path style="fill:#6F9AFF;" d="M391.366,137.2l-27.09,23.67l-5.19-7.13l-0.48-0.66l-1.52-2.1l-1.98-2.72l-0.19,0.7v0.01
							l-20.5,78.5h-0.1c-0.63-0.75-5.35-6.11-11.23-5.16c-2.64,0.43-6.49,3.04-12.61,5.16h-33.98v-25.1
							c9.57-30.05,24.96-78.64,26.47-85.29c2.21-9.71,7.41-26.04,8.35-27.64c0.93-1.61,3.79-3.52,3.79-3.52l-2.01-8.67l5.29-4.2
							c0,0,6.23-24.49,7.84-24.6c1.36-0.1,12.43,2.83,15.91,4.25c0.62,0.25,0.99,0.45,1.04,0.58c0.3,0.87,3.91,13.64,3.91,13.64
							s21.03,18.79,22.39,20.72c0.95,1.35,11.29,25.09,17.42,39.22c0,0.01,0.01,0.02,0.02,0.04c0,0.01,0.01,0.02,0.01,0.03
							C389.536,132.95,391.366,137.2,391.366,137.2z"/>
						<g>
							<polygon style="fill:#3C2238;" points="318.213,73.716 322.627,89.505 345.73,68.423 323.031,86.622 							"/>
							<polygon style="fill:#3C2238;" points="387.556,126.313 386.926,126.927 359.085,153.74 357.083,150.981 386.892,126.856 
															"/>
							<polygon style="fill:#FFF0E1;" points="357.469,154.134 387.556,126.311 392.836,137.314 363.876,162.087 							"/>
							
								<path style="fill:none;stroke:#FFF0E1;stroke-width:0.5;stroke-linecap:round;stroke-linejoin:round;stroke-miterlimit:10;" d="
								M368.929,87.421c-7.104,4.79-11.612,12.538-14.544,20.415c-3.149,8.458-5.134,17.325-4.258,26.394
								c0.516,5.335,1.84,10.312,4.835,14.809"/>
							<path style="fill:#3C2238;" d="M342.135,52.701l-23.751,20.352c0,0,6.231-24.49,7.839-24.607
								C327.589,48.35,338.658,51.28,342.135,52.701z"/>
							
								<polyline style="fill:none;stroke:#FFF0E1;stroke-width:0.5;stroke-linecap:round;stroke-linejoin:round;stroke-miterlimit:10;" points="
								318.383,73.053 323.061,86.761 347.082,66.92 							"/>
							<path style="fill:#FFF0E1;" d="M318.994,82.038c-0.191,0.752-0.956,1.206-1.707,1.015c-0.752-0.191-1.206-0.956-1.015-1.707
								c0.191-0.752,0.956-1.206,1.707-1.015C318.731,80.522,319.185,81.287,318.994,82.038z"/>
							<g>
								<path style="fill:#FFF0E1;" d="M312.5,108.776c-0.215,0.745-0.993,1.176-1.738,0.961c-0.745-0.215-1.175-0.993-0.961-1.738
									c0.215-0.745,0.993-1.176,1.738-0.961C312.284,107.252,312.714,108.03,312.5,108.776z"/>
								<path style="fill:#FFF0E1;" d="M306.285,130.367c-0.215,0.745-0.993,1.176-1.738,0.961
									c-0.745-0.214-1.176-0.993-0.961-1.738s0.993-1.175,1.738-0.961C306.069,128.844,306.499,129.622,306.285,130.367z"/>
								<path style="fill:#FFF0E1;" d="M300.034,152.081c-0.215,0.745-0.993,1.176-1.738,0.961
									c-0.745-0.215-1.176-0.993-0.961-1.738c0.215-0.745,0.993-1.176,1.738-0.961
									C299.818,150.558,300.249,151.336,300.034,152.081z"/>
								<path style="fill:#FFF0E1;" d="M293.748,173.918c-0.214,0.745-0.993,1.176-1.738,0.961
									c-0.745-0.214-1.176-0.993-0.961-1.738c0.215-0.745,0.993-1.175,1.738-0.961
									C293.533,172.394,293.963,173.172,293.748,173.918z"/>
								<path style="fill:#FFF0E1;" d="M286.756,198.208c-0.214,0.745-0.993,1.176-1.738,0.961
									c-0.745-0.215-1.176-0.993-0.961-1.738c0.215-0.745,0.993-1.176,1.738-0.961
									C286.541,196.685,286.971,197.463,286.756,198.208z"/>
							</g>
							
								<polygon style="fill:none;stroke:#FFF0E1;stroke-width:0.5;stroke-linecap:round;stroke-linejoin:round;stroke-miterlimit:10;" points="
								319.976,116.493 344.884,122.83 339.26,144.935 323.971,148.421 311.991,140.28 							"/>
						</g>
					</g>
					
						<line style="fill:none;stroke:#FFF0E1;stroke-width:0.25;stroke-linecap:round;stroke-linejoin:round;stroke-miterlimit:10;" x1="329.213" y1="223.083" x2="352.024" y2="143.089"/>
				</g>
				<g>
					<g>
						<path style="fill:#FFF0E1;" d="M445.406,219.249c-0.006,0.201-0.037,0.397-0.073,0.583c-0.178,1.252-0.51,2.345-0.819,3.183
							c-0.385,1.012-1.347,1.677-2.431,1.627c-3.329-0.124-11.21-0.646-20.127-2.6c-11.82-2.608-19.371-6.183-33.806-9.469
							c-11.275-2.571-25.048-8.453-30.512-10.896c-1.318-0.59-1.855-2.155-1.187-3.425l2.884-5.479l0.27-0.514l7.05-13.443
							l0.277-0.529l2.88-5.49c0.511-0.969,1.789-1.184,2.586-0.452c2.565,2.382,7.988,6.985,13.691,9.259
							c7.892,3.16,20.479-3.536,20.479-3.536s0.825,2.297,2.472,5.366c0.094,0.166,0.192,0.343,0.29,0.521
							c1.017,1.809,2.303,3.861,3.879,5.851c0.124,0.144,0.24,0.302,0.368,0.457c1.323,1.617,2.843,3.192,4.561,4.55
							c0.015,0.007,0.019,0.018,0.034,0.026c0.153,0.121,0.306,0.242,0.456,0.352c2.173,1.673,4.355,3.009,6.54,4.207
							c0.172,0.102,0.354,0.201,0.533,0.289c5.349,2.904,10.688,5.092,15.756,9.493
							C445.132,212.372,445.736,216.196,445.406,219.249z"/>
						<g>
							<g>
								<path style="fill:#FF8878;" d="M445.406,219.249c-0.006,0.201-0.037,0.397-0.073,0.583
									c-29.606-5.613-58.511-14.716-85.997-27.059l0.27-0.514c6.436,2.891,12.948,5.607,19.529,8.125
									c0.22,0.098,0.447,0.182,0.659,0.258c12.175,4.656,24.587,8.698,37.167,12.075c0.197,0.069,0.376,0.119,0.561,0.155
									C426.733,215.356,436.034,217.488,445.406,219.249z"/>
							</g>
							<g>
								<path style="fill:#FF8878;" d="M379.794,200.642c0.011,0.033,0.012,0.07,0.023,0.104l-0.578,0.124
									c-0.031-0.163-0.073-0.322-0.104-0.485c-0.78-3.577-2.3-7.36-4.75-11.865c-1.862-3.442-4.232-7.243-7.729-9.703l0.277-0.529
									c3.62,2.529,6.058,6.419,7.972,9.942C376.522,191.209,378.776,195.72,379.794,200.642z"/>
							</g>
							<g>
								<path style="fill:#FF8878;" d="M425.702,199.686c-3.679,3.667-6.53,8.266-8.18,13.185c-0.014,0.067-0.04,0.138-0.065,0.208
									l-0.558-0.181c0.018-0.056,0.044-0.126,0.062-0.182c1.646-4.967,4.511-9.596,8.208-13.319
									C425.34,199.5,425.523,199.599,425.702,199.686z"/>
							</g>
							<g>
								<g>
									<path style="fill:#FF8878;" d="M409.332,183.954c-3.52,2.286-6.637,5.277-9.064,8.688
										c-0.044,0.052-0.096,0.082-0.151,0.101c-0.089,0.031-0.178,0.024-0.26-0.035c-0.131-0.092-0.169-0.277-0.078-0.407
										c2.49-3.483,5.661-6.53,9.263-8.868C409.136,183.6,409.234,183.777,409.332,183.954z"/>
								</g>
								<g>
									<path style="fill:#FF8878;" d="M413.578,190.262c-3.337,2.384-6.161,5.436-8.293,8.982
										c-0.04,0.063-0.099,0.109-0.155,0.128c-0.078,0.027-0.167,0.02-0.245-0.028c-0.142-0.088-0.191-0.269-0.104-0.411
										c2.166-3.595,5.044-6.703,8.429-9.128C413.335,189.949,413.451,190.107,413.578,190.262z"/>
								</g>
								<g>
									<path style="fill:#FF8878;" d="M418.629,195.191c-2.924,2.069-5.552,4.533-7.844,7.328
										c-0.037,0.037-0.088,0.068-0.133,0.083c-0.089,0.03-0.204,0.02-0.275-0.042c-0.134-0.103-0.151-0.296-0.044-0.419
										c2.291-2.795,4.901-5.24,7.807-7.327c0.015,0.007,0.019,0.018,0.034,0.026C418.327,194.96,418.48,195.081,418.629,195.191z
										"/>
								</g>
							</g>
						</g>
					</g>
					<path style="fill:#FF8878;" d="M395.26,190.816c1.234,3.599-0.684,7.517-4.283,8.751c-3.599,1.234-7.517-0.683-8.751-4.283
						c-1.234-3.599,0.684-7.517,4.283-8.751C390.108,185.299,394.026,187.216,395.26,190.816z"/>
				</g>
				<g>
					<g>
						<path style="fill:#FFF0E1;" d="M307.369,86.675l-2.564,1.193c-1.122,0.522-2.024,1.424-2.546,2.546l-1.194,2.564
							c-0.127,0.272-0.513,0.272-0.64,0l-1.194-2.564c-0.522-1.122-1.424-2.024-2.546-2.546l-2.564-1.193
							c-0.272-0.127-0.272-0.513,0-0.64l2.564-1.194c1.122-0.522,2.024-1.424,2.546-2.546l1.194-2.564
							c0.127-0.272,0.513-0.272,0.64,0l1.194,2.564c0.523,1.122,1.424,2.024,2.546,2.546l2.564,1.194
							C307.641,86.162,307.641,86.549,307.369,86.675z"/>
					</g>
					<g>
						<path style="fill:#FFF0E1;" d="M461.242,107.441l-2.564,1.193c-1.122,0.522-2.024,1.424-2.546,2.546l-1.194,2.564
							c-0.127,0.272-0.513,0.272-0.64,0l-1.194-2.564c-0.522-1.122-1.424-2.024-2.546-2.546l-2.564-1.193
							c-0.272-0.127-0.272-0.513,0-0.64l2.564-1.194c1.122-0.522,2.024-1.424,2.546-2.546l1.194-2.564
							c0.126-0.272,0.513-0.272,0.64,0l1.194,2.564c0.523,1.122,1.424,2.024,2.546,2.546l2.564,1.194
							C461.514,106.928,461.514,107.314,461.242,107.441z"/>
					</g>
					<g>
						<path style="fill:#FFF0E1;" d="M461.242,205.484l-2.564,1.193c-1.122,0.523-2.024,1.424-2.546,2.546l-1.194,2.564
							c-0.127,0.272-0.513,0.272-0.64,0l-1.194-2.564c-0.522-1.122-1.424-2.024-2.546-2.546l-2.564-1.193
							c-0.272-0.127-0.272-0.513,0-0.64l2.564-1.194c1.122-0.522,2.024-1.424,2.546-2.546l1.194-2.564
							c0.126-0.272,0.513-0.272,0.64,0l1.194,2.564c0.523,1.122,1.424,2.024,2.546,2.546l2.564,1.194
							C461.514,204.971,461.514,205.357,461.242,205.484z"/>
					</g>
					<g>
						<path style="fill:#FFF0E1;" d="M292.391,161.228l-2.564,1.193c-1.122,0.523-2.024,1.424-2.546,2.546l-1.194,2.564
							c-0.127,0.272-0.513,0.272-0.64,0l-1.194-2.564c-0.522-1.122-1.424-2.024-2.546-2.546l-2.564-1.193
							c-0.272-0.127-0.272-0.513,0-0.64l2.564-1.194c1.122-0.523,2.024-1.424,2.546-2.546l1.194-2.564
							c0.127-0.272,0.513-0.272,0.64,0l1.194,2.564c0.523,1.122,1.424,2.024,2.546,2.546l2.564,1.194
							C292.663,160.715,292.663,161.102,292.391,161.228z"/>
					</g>
					<g>
						<path style="fill:#FFF0E1;" d="M396.927,163.289l-2.564,1.193c-1.122,0.523-2.024,1.424-2.546,2.546l-1.194,2.564
							c-0.127,0.272-0.513,0.272-0.64,0l-1.194-2.564c-0.522-1.122-1.424-2.024-2.546-2.546l-2.564-1.193
							c-0.272-0.127-0.272-0.513,0-0.64l2.564-1.194c1.122-0.523,2.024-1.424,2.546-2.546l1.194-2.564
							c0.126-0.272,0.513-0.272,0.64,0l1.194,2.564c0.523,1.122,1.424,2.024,2.546,2.546l2.564,1.194
							C397.198,162.776,397.198,163.163,396.927,163.289z"/>
					</g>
				</g>
			</g>
		</g>
	</g>
	<g>
		<path style="fill:#FFFDFF;" d="M36.282,469.543c-3.313,0-6-2.687-6-6v-99.32c0-23.32,8.124-46.089,22.877-64.11
			c1.442-1.765,2.949-3.483,4.476-5.103c3.786-4.045,7.921-7.788,12.34-11.175c-0.07-0.22-0.133-0.442-0.188-0.669l-0.649-2.657
			c-1.253-5.151,1.581-10.328,6.591-12.048l28.215-9.661l0.891-0.31c1.084-0.376,2.204-0.564,3.338-0.564
			c4.053,0,7.661,2.355,9.301,6.034c4.653-0.648,9.356-0.977,14.039-0.977c27.043,0,52.465,10.529,71.583,29.648
			c9.345,9.345,16.679,20.258,21.799,32.437c1.025,2.452,1.928,4.86,2.688,7.17c2.768,8.286,4.435,16.976,4.962,25.858l3.006,1.727
			c0.738,0.164,1.442,0.462,2.083,0.885c0.422,0.278,0.805,0.602,1.142,0.963l0.079,0.046c0.143,0.068,0.282,0.143,0.418,0.223
			c0.071,0.042,0.267,0.166,0.294,0.184l12.525,7.186c1.553,0.891,2.627,2.428,2.929,4.192c0.302,1.764-0.199,3.571-1.368,4.928
			l-7.429,8.625c-0.038,0.07-0.078,0.14-0.119,0.209c-0.438,0.718-0.989,1.323-1.622,1.8l-2.718,3.158l-9.021,10.461v60.862
			c0,3.313-2.686,6-6,6H36.282z"/>
		<g>
			<path style="fill:#FF8878;" d="M226.742,364.223v99.32H36.282v-99.32c0-22.88,8.07-43.88,21.52-60.31
				c1.34-1.64,2.74-3.24,4.2-4.79c9.24-9.87,20.56-17.77,33.27-23c2.19-0.9,4.42-1.73,6.69-2.46c9.3-3.04,19.23-4.68,29.55-4.68
				c26.3,0,50.11,10.66,67.34,27.89c8.68,8.68,15.68,19.03,20.51,30.52c0.92,2.2,1.77,4.44,2.52,6.72
				C225.042,343.573,226.742,353.703,226.742,364.223z"/>
			<g>
				<g>
					<path style="fill:#AA4346;" d="M175.946,383.346l-0.36,7.36l-13.34,1.24l-0.66-6.74c0,0-5.26-0.83-6.68-5.53
						c-0.26-0.85-1-4.63-2.02-10.24c-0.04-0.19-0.07-0.39-0.11-0.59c-2.02,1.61-4.67,2.53-4.67,2.53l0.13,0.36l1.4,3.72
						l-51.57,17.62l-1.17-3.27l-0.11-0.31c0,0-1.68,0.6-3.76,0.81c0.05,0.12,0.09,0.24,0.13,0.36c1.97,5.24,3.24,8.79,3.46,9.64
						c1.19,4.77-2.89,8.17-2.89,8.17l2.89,6.13l-12.08,5.79l-4.09-6.13c-4.94,2.38-12.94-1.7-17.87-10.72
						c-1.2-2.2-2.76-6.49-4.39-11.98c-0.11-0.35-0.21-0.71-0.32-1.08c-1.93-6.65-3.93-14.89-5.54-23.26
						c-0.07-0.38-0.15-0.75-0.22-1.13c-2.4-12.8-3.84-25.77-2.64-33.7c2.73-18.04,11.41-25.7,11.41-25.7s5.27-6.22,12.42-13.62
						c2.42-2.51,4.05-4.27,5.15-5.49c2.15-2.4,2.26-2.77,2.26-2.77c-2.26,0.57-4.54-0.81-5.09-3.07l-0.65-2.66
						c-0.51-2.1,0.67-4.25,2.71-4.95l0.55-0.19l27.66-9.47l0.92-0.32c2.11-0.73,4.42,0.33,5.25,2.4l0.98,2.46
						c0.88,2.21-0.25,4.72-2.51,5.5l-0.97,0.35c0.71,0.14,1.42,0.29,2.13,0.44c2.25,0.47,4.5,0.95,6.75,1.42
						c2.86,0.6,5.72,1.2,8.58,1.8c2.5,0.52,4.99,1.04,7.48,1.56c2.96,0.62,5.9,1.38,8.62,2.7c2.75,1.33,5.32,3.01,7.73,4.89
						c3.56,2.79,6.76,6.02,9.63,9.51c4.95,5.99,10.19,17.29,14.61,29.1v0.01c0.14,0.37,0.28,0.74,0.42,1.11v0.01
						c3.19,8.64,5.93,17.46,7.78,24.6c0.09,0.33,0.17,0.66,0.25,0.99v0.01c1.34,5.27,2.15,9.53,2.24,11.95
						C186.176,375.246,181.406,382.856,175.946,383.346z"/>
				</g>
				<g>
					<g>
						<path style="fill:#3C2238;" d="M105.886,264.476c-1.77,2.48-5.54,6.47-12.58,8.87c-8.21,2.79-13.19,1.41-15.08,0.6
							L105.886,264.476z"/>
					</g>
					<g>
						<path style="fill:#3C2238;" d="M104.766,276.776c0,0-4.596,4.724-15.383,8.235c-5.945,1.935-9.297,2.335-10.937,2.575
							c2.15-2.4,2.26-2.77,2.26-2.77S93.976,283.036,104.766,276.776z"/>
					</g>
					<g>
						<path style="fill:#3C2238;" d="M92.75,390.681c-8.458,0-11.364-16.585-14.178-32.634c-0.636-3.629-1.237-7.056-1.896-10.259
							c-3.535-17.17-4.925-25.464-4.939-25.546c-0.034-0.204,0.104-0.398,0.309-0.432c0.2-0.029,0.397,0.103,0.432,0.309
							c0.013,0.081,1.402,8.364,4.933,25.519c0.662,3.214,1.264,6.646,1.901,10.279c2.666,15.208,5.694,32.436,13.695,32.015
							l4.592-1.053l50.383-17.857c4.586-1.498,6.262-3.18,6.647-6.67c0.747-6.762-23.726-64.929-23.973-65.516
							c-0.08-0.19,0.009-0.41,0.2-0.491c0.188-0.077,0.411,0.009,0.491,0.2c1.013,2.403,24.795,58.936,24.027,65.889
							c-0.419,3.802-2.29,5.711-7.15,7.298l-50.415,17.865l-4.697,1.073C92.989,390.678,92.868,390.681,92.75,390.681z"/>
					</g>
					<g>
						<path style="fill:#3C2238;" d="M183.536,353.006c-4.15-2.22-7.51-6.31-9.01-11.18c-1.47-4.78-1.27-10.21,0.56-15.53
							c0.14,0.37,0.28,0.74,0.42,1.11v0.01c-1.5,4.89-1.6,9.82-0.26,14.19c1.36,4.45,4.34,8.21,8.04,10.41
							C183.376,352.346,183.456,352.676,183.536,353.006z"/>
					</g>
					<g>
						<path style="fill:#3C2238;" d="M58.186,391.566c-0.11-0.35-0.21-0.71-0.32-1.08c1.92-4.32,2.24-9.35,0.84-13.87
							c-1.14-3.67-3.41-6.96-6.38-9.39c-0.07-0.38-0.15-0.75-0.22-1.13c3.42,2.56,6.05,6.2,7.32,10.29
							C60.966,381.356,60.496,386.916,58.186,391.566z"/>
					</g>
				</g>
			</g>
			<g>
				<g>
					<g>
						<path style="fill:#6F9AFF;" d="M249.104,374.513l-8.14,9.45l-0.01,0.01l-0.3,0.34l-3.14,3.64l-0.33,0.39l-5.16,5.98
							l-10.78,12.51l-0.38,0.43l-14.9,17.29l-4.77,5.54l-0.35,0.41l19.66,0.23c-4.34,7.95-9.82,15.4-16.4,22.06
							c-1.59,1.62-3.25,3.19-4.98,4.72l-53.38,0.3l-7.786-15.064c-1.367-2.645-1.29-5.805,0.205-8.38l22.06-37.996l5.72-9.87
							l5.54-9.54l0.25-0.43l14.1-24.28l0.01-0.01l0.2-0.35v-0.01l0.01-0.01l1.83-3.16l0.52-0.9l3.55-6.11l17.31,9.95h0.01l0.43,0.24
							l1.63,0.94l0.39,0.22l18.88,10.85l3.36,1.93l0.43,0.24l1.77,1.02c0.01,0,0.01,0.01,0.01,0.01l0.09,0.05h0.01L249.104,374.513z
							"/>
					</g>
					<g>
						<path style="fill:#FFF0E1;" d="M196.872,349.67c0,1.551-1.257,2.808-2.809,2.808c-1.551,0-2.808-1.257-2.808-2.808
							c0-1.551,1.257-2.809,2.808-2.809C195.615,346.861,196.872,348.119,196.872,349.67z"/>
						<g>
							<g>
								<path style="fill:#FFF0E1;" d="M202.532,361.962c-0.05,0-0.1-0.015-0.143-0.045c-0.113-0.079-0.141-0.235-0.062-0.349
									l6.937-9.915c0.08-0.113,0.236-0.14,0.348-0.061c0.113,0.079,0.141,0.235,0.062,0.349l-6.937,9.915
									C202.688,361.925,202.61,361.962,202.532,361.962z"/>
							</g>
							<g>
								<path style="fill:#FFF0E1;" d="M204.575,363.239c-0.049,0-0.099-0.015-0.142-0.045c-0.114-0.078-0.142-0.233-0.063-0.348
									l6.893-9.957c0.078-0.114,0.235-0.142,0.348-0.063c0.114,0.078,0.142,0.233,0.063,0.348l-6.894,9.957
									C204.732,363.202,204.654,363.239,204.575,363.239z"/>
							</g>
							<g>
								<path style="fill:#FFF0E1;" d="M227.681,376.132c-0.047,0-0.095-0.013-0.137-0.041c-0.116-0.075-0.148-0.23-0.073-0.346
									l6.511-9.957c0.077-0.115,0.231-0.149,0.346-0.072c0.116,0.075,0.148,0.23,0.073,0.346l-6.511,9.957
									C227.842,376.092,227.762,376.132,227.681,376.132z"/>
							</g>
							<g>
								<path style="fill:#FFF0E1;" d="M229.851,378.047c-0.044,0-0.088-0.012-0.128-0.035c-0.118-0.071-0.157-0.225-0.086-0.343
									l6.255-10.468c0.07-0.121,0.224-0.157,0.343-0.087c0.118,0.071,0.157,0.225,0.086,0.343l-6.255,10.468
									C230.019,378.004,229.936,378.047,229.851,378.047z"/>
							</g>
							<g>
								<path style="fill:#FFF0E1;" d="M237.514,387.953l-0.33,0.39l-10.82-5.75l-8.75,14.51l3.63,9.73l-0.38,0.43l-3.76-10.1
									c-0.02-0.07-0.02-0.15,0.02-0.22l8.94-14.81c0.07-0.11,0.21-0.15,0.33-0.09L237.514,387.953z"/>
							</g>
							<g>
								<path style="fill:#FFF0E1;" d="M188.924,353.953l-0.06,0.11l-10.77,21.12c-0.8,1.58-2.43,2.49-4.11,2.49
									c-0.67,0-1.35-0.14-1.99-0.46l-0.51-0.25l0.25-0.43l0.48,0.24c1.99,0.97,4.43,0.15,5.44-1.82l10.78-21.14l0.05-0.09
									c0.06-0.12,0.21-0.17,0.33-0.1C188.934,353.682,188.984,353.832,188.924,353.953z"/>
							</g>
						</g>
					</g>
					<g>
						<path style="fill:#FFF0E1;" d="M208.241,391.725c-0.001-0.002-0.002-0.003-0.003-0.005
							c-5.062-8.168-5.966-18.855-2.358-27.891c0.053-0.134,0.203-0.2,0.336-0.15c0.132,0.049,0.198,0.198,0.144,0.332
							c-3.548,8.888-2.66,19.4,2.319,27.434c0.075,0.121,0.036,0.279-0.087,0.355C208.473,391.874,208.317,391.841,208.241,391.725z
							"/>
					</g>
					<g>
						<path style="fill:#FFF0E1;" d="M185.508,429.104c-0.052-0.079-0.057-0.185-0.003-0.273l34.497-56.752
							c0.075-0.123,0.234-0.164,0.356-0.093c0.121,0.071,0.162,0.229,0.087,0.352l-34.497,56.753
							c-0.075,0.123-0.234,0.164-0.356,0.092C185.557,429.163,185.529,429.136,185.508,429.104z"/>
					</g>
					<g>
						<path style="fill:#FFF0E1;" d="M185.846,352.274c-0.052-0.079-0.057-0.185-0.004-0.272c0.074-0.123,0.234-0.164,0.356-0.093
							l54.659,31.935c0.121,0.071,0.161,0.229,0.087,0.351c-0.074,0.123-0.234,0.164-0.356,0.092l-54.659-31.935
							C185.895,352.333,185.867,352.306,185.846,352.274z"/>
					</g>
					<g>
						<polygon style="fill:#3C2238;" points="201.199,430.09 171.871,429.513 205.969,424.554 						"/>
					</g>
				</g>
				<path style="fill:#FFF0E1;" d="M194.49,459.244l20.955-28.996c0.628-0.87,1.641-1.379,2.714-1.364l7.863,0.105l-19.404,31.149
					L194.49,459.244z"/>
			</g>
			<g>
				<path style="fill:#FFCA63;" d="M127.053,400.026c5.222,8.688,2.47,16.252-10.293,27.249c-0.03,0.02-0.055,0.053-0.085,0.073
					c-12.758,10.934-30.804,14.842-40.577,19.73c-9.795,4.889-12.986,8.681-23.017,10.013c-7.765,1.045-10.891-8.014-10.891-8.014
					c-4.057-9.166,10.066-19.452,13.806-21.758c3.734-2.319,28.529-21.452,35.27-25.104c3.52-1.91,7.89-3.702,12.38-4.978
					C113.289,394.474,123.493,394.103,127.053,400.026z"/>
				<path style="fill:#FFF0E1;" d="M127.053,400.026c5.222,8.688,2.47,16.252-10.293,27.249c-0.03,0.02-0.055,0.053-0.085,0.073
					c-0.284-0.617-0.528-1.175-0.726-1.529c-3.557-6.344-6.648-12.948-9.249-19.738c-1.107-2.924-2.131-5.867-3.054-8.843
					C113.289,394.474,123.493,394.103,127.053,400.026z"/>
				<path style="fill:#AA4346;" d="M67.632,449.113c0,0-16.618,11.499-22.353,2.273c-5.735-9.226,5.151-18.048,6.285-18.773
					c1.134-0.725,6.397-4.549,7.919-3.053c0.981,0.964,1.209,1.521,1.209,1.521s-8.069,2.529-4.558,10.455
					c3.182,7.183,10.417,3.988,10.417,3.988S68.598,447.026,67.632,449.113z"/>
				<g>
					
						<path style="fill:none;stroke:#FFF0E1;stroke-width:0.5;stroke-linecap:round;stroke-linejoin:round;stroke-miterlimit:10;" d="
						M66.466,445.691c0.145-2.295,1.85-4.246,3.85-5.38c2-1.134,4.292-1.613,6.515-2.199c2.292-0.604,4.568-1.345,6.638-2.5
						c3.992-2.229,6.982-5.856,10.507-8.768c5.877-4.855,13.376-7.712,20.994-7.998"/>
					
						<path style="fill:none;stroke:#FFF0E1;stroke-width:0.5;stroke-linecap:round;stroke-linejoin:round;stroke-miterlimit:10;" d="
						M60.113,430.987c6.261,0.178,12.564-1.678,17.729-5.222c4.15-2.847,7.597-6.752,12.137-8.922
						c2.268-1.084,4.73-1.693,7.072-2.605c1.895-0.738,3.712-1.677,5.411-2.795c2.511-1.652,4.902-3.941,5.379-6.909"/>
					<g>
						<path style="fill:none;stroke:#FFF0E1;stroke-linecap:round;stroke-linejoin:round;stroke-miterlimit:10;" d="M98.816,408.995
							c1.201,0.957,2.002,2.319,2.723,3.676c2.385,4.487,4.207,9.273,5.407,14.211"/>
						<path style="fill:none;stroke:#FFF0E1;stroke-linecap:round;stroke-linejoin:round;stroke-miterlimit:10;" d="M99.265,430.695
							c-1.739-6.347-4.98-12.277-9.383-17.168"/>
						<path style="fill:none;stroke:#FFF0E1;stroke-linecap:round;stroke-linejoin:round;stroke-miterlimit:10;" d="M90.267,434.758
							c-2.468-5.73-6.017-10.992-10.405-15.426"/>
						<path style="fill:none;stroke:#FFF0E1;stroke-linecap:round;stroke-linejoin:round;stroke-miterlimit:10;" d="M82.859,438.77
							c-2.281-5.552-5.473-10.729-9.41-15.261"/>
						<path style="fill:none;stroke:#FFF0E1;stroke-linecap:round;stroke-linejoin:round;stroke-miterlimit:10;" d="M73.866,442.714
							c-1.855-5.828-4.76-11.32-8.535-16.132"/>
					</g>
					
						<path style="fill:none;stroke:#FFF0E1;stroke-width:0.5;stroke-linecap:round;stroke-linejoin:round;stroke-miterlimit:10;" d="
						M74.426,441.253c0.911,0.381,1.34,1.428,0.959,2.339c-0.381,0.911-1.428,1.34-2.339,0.959c-0.911-0.381-1.34-1.428-0.959-2.339
						C72.468,441.302,73.515,440.872,74.426,441.253z"/>
					
						<path style="fill:none;stroke:#FFF0E1;stroke-width:0.5;stroke-linecap:round;stroke-linejoin:round;stroke-miterlimit:10;" d="
						M83.78,437.417c0.911,0.381,1.34,1.428,0.959,2.339c-0.381,0.911-1.428,1.34-2.339,0.959c-0.911-0.381-1.34-1.428-0.959-2.339
						C81.822,437.465,82.869,437.036,83.78,437.417z"/>
					
						<path style="fill:none;stroke:#FFF0E1;stroke-width:0.5;stroke-linecap:round;stroke-linejoin:round;stroke-miterlimit:10;" d="
						M91.039,433.073c0.911,0.381,1.34,1.428,0.959,2.339c-0.381,0.911-1.428,1.34-2.338,0.959c-0.911-0.381-1.34-1.428-0.959-2.339
						C89.082,433.122,90.129,432.693,91.039,433.073z"/>
					
						<path style="fill:none;stroke:#FFF0E1;stroke-width:0.5;stroke-linecap:round;stroke-linejoin:round;stroke-miterlimit:10;" d="
						M100.004,429.397c0.911,0.381,1.34,1.428,0.959,2.339c-0.381,0.911-1.428,1.34-2.339,0.959
						c-0.911-0.381-1.34-1.428-0.959-2.339C98.046,429.445,99.093,429.016,100.004,429.397z"/>
					
						<path style="fill:none;stroke:#FFF0E1;stroke-width:0.5;stroke-linecap:round;stroke-linejoin:round;stroke-miterlimit:10;" d="
						M107.613,425.43c0.911,0.381,1.34,1.428,0.959,2.339c-0.381,0.911-1.428,1.34-2.339,0.959c-0.911-0.381-1.34-1.428-0.959-2.339
						C105.656,425.479,106.702,425.049,107.613,425.43z"/>
					
						<path style="fill:none;stroke:#FFF0E1;stroke-width:0.5;stroke-linecap:round;stroke-linejoin:round;stroke-miterlimit:10;" d="
						M99.645,407.429c0.911,0.381,1.34,1.428,0.959,2.339c-0.381,0.911-1.428,1.34-2.338,0.959c-0.911-0.381-1.34-1.428-0.959-2.339
						C97.687,407.478,98.734,407.048,99.645,407.429z"/>
					
						<path style="fill:none;stroke:#FFF0E1;stroke-width:0.5;stroke-linecap:round;stroke-linejoin:round;stroke-miterlimit:10;" d="
						M90.676,411.888c0.911,0.381,1.34,1.428,0.959,2.339c-0.381,0.911-1.428,1.34-2.339,0.959c-0.911-0.381-1.34-1.428-0.959-2.339
						C88.719,411.936,89.766,411.507,90.676,411.888z"/>
					
						<path style="fill:none;stroke:#FFF0E1;stroke-width:0.5;stroke-linecap:round;stroke-linejoin:round;stroke-miterlimit:10;" d="
						M80.77,417.707c0.911,0.381,1.34,1.428,0.959,2.338c-0.381,0.911-1.428,1.34-2.339,0.959c-0.911-0.381-1.34-1.428-0.959-2.339
						C78.812,417.756,79.859,417.326,80.77,417.707z"/>
					
						<path style="fill:none;stroke:#FFF0E1;stroke-width:0.5;stroke-linecap:round;stroke-linejoin:round;stroke-miterlimit:10;" d="
						M74.237,422.078c0.911,0.381,1.34,1.428,0.959,2.339c-0.381,0.911-1.428,1.34-2.338,0.959c-0.911-0.381-1.34-1.428-0.959-2.339
						C72.279,422.126,73.326,421.697,74.237,422.078z"/>
					
						<path style="fill:none;stroke:#FFF0E1;stroke-width:0.5;stroke-linecap:round;stroke-linejoin:round;stroke-miterlimit:10;" d="
						M66.295,425.075c0.911,0.381,1.34,1.428,0.959,2.339c-0.381,0.911-1.428,1.34-2.338,0.959c-0.911-0.381-1.34-1.428-0.959-2.339
						C64.337,425.123,65.384,424.694,66.295,425.075z"/>
				</g>
			</g>
			<g>
				<path style="fill:#3C2238;" d="M140.728,289.384c0.467-3.502,2.849-6.421,6.379-6.266c3.102,0.136,7.268,0.885,12.224,3.136
					c5.801,2.634,9.838,5.926,12.379,8.483c2.239,2.253,2.413,5.834,0.382,8.277c-4.201,5.054-12.263,12.376-21.089,7.902
					C142.437,306.573,139.845,296.005,140.728,289.384z"/>
				<path style="fill:#3C2238;" d="M177.776,307.09c0.975-3.396,3.76-5.934,7.229-5.263c3.048,0.59,7.06,1.941,11.632,4.894
					c5.352,3.456,8.863,7.304,11.002,10.206c1.885,2.557,1.531,6.125-0.835,8.243c-4.897,4.383-13.945,10.444-22.019,4.724
					C176.947,324.343,175.933,313.51,177.776,307.09z"/>
				<path style="fill:none;stroke:#3C2238;stroke-width:1.3449;stroke-miterlimit:10;" d="M171.675,299.418
					c2.036-0.036,4.03,0.665,5.795,1.68c1.765,1.015,3.331,2.336,4.886,3.65"/>
				<path style="fill:none;stroke:#3C2238;stroke-width:0.3362;stroke-miterlimit:10;" d="M173.068,300.618
					c0.066,0.06,0.127,0.133,0.182,0.222c0.859,1.391-1.196,4.624-2.072,5.599c-0.516,0.575-1.703,1.378-2.455,0.739
					c-0.365-0.31-0.401-0.856-0.359-1.334c0.122-1.377,0.68-2.709,1.558-3.774C170.477,301.397,172.114,299.761,173.068,300.618z"/>
				<path style="fill:none;stroke:#3C2238;stroke-width:0.3362;stroke-miterlimit:10;" d="M180.077,304.132
					c0.073,0.051,0.142,0.117,0.207,0.199c1.018,1.279-0.638,4.733-1.392,5.805c-0.444,0.632-1.527,1.57-2.349,1.025
					c-0.399-0.265-0.5-0.803-0.514-1.282c-0.042-1.382,0.354-2.77,1.099-3.933C177.597,305.212,179.028,303.393,180.077,304.132z"/>
				<path style="fill:#3C2238;" d="M206.987,319.908l3.356,2.211c1.043,0.687,1.305,2.104,0.577,3.118l0,0
					c-0.662,0.922-1.916,1.189-2.895,0.616l-3.377-1.974L206.987,319.908z"/>
				<path style="fill:#3C2238;" d="M143.051,290.036l-3.583-1.82c-1.113-0.566-1.532-1.944-0.923-3.034l0,0
					c0.554-0.99,1.771-1.396,2.808-0.936l3.577,1.583L143.051,290.036z"/>
			</g>
			<g>
				<g>
					<path style="fill:#AA4346;" d="M219.362,327.393c-5.43,0.03-10.7,2.84-13.64,7.88c-0.14,0.22-0.25,0.44-0.37,0.67l5.53,3.23
						c0.11-0.24,0.23-0.46,0.35-0.68c2.22-3.78,6.64-5.47,10.65-4.38C221.132,331.833,220.282,329.593,219.362,327.393z"/>
					<path style="fill:#6F9AFF;" d="M50.992,382.183c-2.75-5.87-8.63-9.27-14.71-9.14v6.39c3.68-0.14,7.26,1.91,8.92,5.46
						c0.11,0.23,0.22,0.47,0.3,0.7l5.79-2.71C51.192,382.643,51.092,382.423,50.992,382.183z"/>
					<path style="fill:#FFCA63;" d="M131.952,437.723c-6.31-6.08-16.34-5.93-22.42,0.36c-6.07,6.29-5.88,16.33,0.42,22.42
						c0.19,0.18,0.38,0.35,0.57,0.52l4.45-4.61c-0.2-0.16-0.4-0.33-0.58-0.51c-3.76-3.64-3.87-9.62-0.25-13.37
						c3.62-3.76,9.61-3.85,13.37-0.21c0.18,0.17,0.37,0.35,0.53,0.54l4.44-4.59C132.312,438.083,132.132,437.913,131.952,437.723z"
						/>
				</g>
				<g>
					<path style="fill:#FFF0E1;" d="M145.283,393.139l-2.564,1.194c-1.122,0.522-2.024,1.424-2.546,2.546l-1.194,2.564
						c-0.127,0.272-0.513,0.272-0.64,0l-1.194-2.564c-0.522-1.122-1.424-2.024-2.546-2.546l-2.564-1.194
						c-0.272-0.127-0.272-0.513,0-0.64l2.564-1.194c1.122-0.522,2.024-1.424,2.546-2.546l1.194-2.564
						c0.126-0.272,0.513-0.272,0.64,0l1.194,2.564c0.523,1.122,1.424,2.024,2.546,2.546l2.564,1.194
						C145.555,392.626,145.555,393.012,145.283,393.139z"/>
				</g>
				<g>
					<path style="fill:#FFF0E1;" d="M169.812,286.951l-2.564,1.194c-1.122,0.522-2.024,1.424-2.546,2.546l-1.194,2.564
						c-0.127,0.272-0.513,0.272-0.64,0l-1.194-2.564c-0.522-1.122-1.424-2.024-2.546-2.546l-2.564-1.194
						c-0.272-0.127-0.272-0.513,0-0.64l2.564-1.194c1.122-0.523,2.024-1.424,2.546-2.546l1.194-2.564
						c0.126-0.272,0.513-0.272,0.64,0l1.194,2.564c0.523,1.122,1.424,2.024,2.546,2.546l2.564,1.194
						C170.084,286.438,170.084,286.825,169.812,286.951z"/>
				</g>
				<g>
					<path style="fill:#FFF0E1;" d="M220.621,417.93l-2.564,1.193c-1.122,0.522-2.024,1.424-2.546,2.546l-1.194,2.564
						c-0.127,0.272-0.513,0.272-0.64,0l-1.194-2.564c-0.522-1.122-1.424-2.024-2.546-2.546l-2.564-1.193
						c-0.272-0.127-0.272-0.513,0-0.64l2.564-1.194c1.122-0.522,2.024-1.424,2.546-2.546l1.194-2.564
						c0.127-0.272,0.513-0.272,0.64,0l1.194,2.564c0.523,1.122,1.424,2.024,2.546,2.546l2.564,1.194
						C220.893,417.417,220.893,417.803,220.621,417.93z"/>
				</g>
				<g>
					<path style="fill:#FFF0E1;" d="M56.457,418.652l-2.564,1.194c-1.122,0.522-2.024,1.424-2.546,2.546l-1.194,2.564
						c-0.127,0.272-0.513,0.272-0.64,0l-1.194-2.564c-0.522-1.122-1.424-2.024-2.546-2.546l-2.564-1.194
						c-0.272-0.127-0.272-0.513,0-0.64l2.564-1.194c1.122-0.523,2.024-1.424,2.546-2.546l1.194-2.564
						c0.126-0.272,0.513-0.272,0.64,0l1.194,2.564c0.523,1.122,1.424,2.024,2.546,2.546l2.564,1.194
						C56.729,418.139,56.729,418.526,56.457,418.652z"/>
				</g>
				<g>
					<path style="fill:#FFF0E1;" d="M151.685,453.675l-2.564,1.193c-1.122,0.522-2.024,1.424-2.546,2.546l-1.194,2.564
						c-0.127,0.272-0.513,0.272-0.64,0l-1.194-2.564c-0.522-1.122-1.424-2.024-2.546-2.546l-2.564-1.193
						c-0.272-0.127-0.272-0.513,0-0.64l2.564-1.194c1.122-0.522,2.024-1.424,2.546-2.546l1.194-2.564
						c0.126-0.272,0.513-0.272,0.64,0l1.194,2.564c0.523,1.122,1.424,2.024,2.546,2.546l2.564,1.194
						C151.956,453.162,151.956,453.548,151.685,453.675z"/>
				</g>
				<g>
					<path style="fill:#FFF0E1;" d="M55.429,343.121l-2.564,1.194c-1.122,0.522-2.024,1.424-2.546,2.546l-1.194,2.564
						c-0.127,0.272-0.513,0.272-0.64,0l-1.194-2.564c-0.522-1.122-1.424-2.024-2.546-2.546l-2.564-1.194
						c-0.272-0.127-0.272-0.513,0-0.64l2.564-1.194c1.122-0.523,2.024-1.424,2.546-2.546l1.194-2.564
						c0.126-0.272,0.513-0.272,0.64,0l1.194,2.564c0.523,1.122,1.424,2.024,2.546,2.546l2.564,1.194
						C55.701,342.608,55.701,342.995,55.429,343.121z"/>
				</g>
			</g>
		</g>
	</g>
	<g>
		<path style="fill:#FFFDFF;" d="M488.076,388.623l-3.898-8.156c-0.721-1.507-2.035-2.646-3.63-3.142
			c-0.583-0.182-1.185-0.272-1.784-0.272c-0.042,0-0.084,0-0.126,0.001l-2.246-4.374c0.145-0.86,0.121-1.755-0.13-2.629
			c-0.198-0.692-0.522-1.319-0.93-1.877l-1.731-2.943c-1.212-2.063-2.448-4.119-3.685-6.176l-0.851-1.417
			c-0.377-9.607-2.08-19.003-5.063-27.929c-0.76-2.311-1.663-4.72-2.688-7.17c-5.12-12.18-12.454-23.094-21.799-32.439
			c-19.119-19.118-44.541-29.647-71.583-29.647c-5.976,0-11.986,0.534-17.889,1.589c-2.913-0.688-6.048-1.037-9.339-1.037
			c-0.792,0-1.602,0.021-2.429,0.061c-14.507,0.713-21.215,8.125-24.314,14.967c-7.316,4.618-14.01,10.147-19.907,16.446
			c-1.52,1.613-3.026,3.331-4.476,5.103c-14.753,18.022-22.877,40.79-22.877,64.11v99.32c0,3.313,2.686,6,6,6h190.46
			c3.313,0,6-2.687,6-6v-55.408l16.419-9.156C488.35,394.907,489.441,391.48,488.076,388.623z"/>
		<g>
			<path style="fill:#AA4346;" d="M463.675,361.694v99.32h-190.46v-99.32c0-22.88,8.07-43.88,21.52-60.31
				c1.34-1.64,2.74-3.24,4.2-4.79c9.24-9.87,20.56-17.77,33.27-23c2.19-0.9,4.42-1.73,6.69-2.46c9.3-3.04,19.23-4.68,29.55-4.68
				c26.3,0,50.11,10.66,67.34,27.89c8.68,8.68,15.68,19.03,20.51,30.52c0.92,2.2,1.77,4.44,2.52,6.72
				C461.975,341.044,463.675,351.174,463.675,361.694z"/>
			<g>
				<g>
					<polygon style="fill:#6F9AFF;" points="478.746,389.407 441.709,411.186 431.534,391.561 428.438,385.603 428.094,384.584 
						428.712,384.206 464.835,362.299 469.581,371.545 469.988,372.349 					"/>
					<polygon style="fill:#3C2238;" points="469.988,372.349 431.534,391.561 428.438,385.603 428.094,384.584 428.712,384.206 
						469.581,371.545 					"/>
					<g>
						<g>
							<path style="fill:#6F9AFF;" d="M419.703,391.433c-0.688-0.972-5.505-11.891-6.543-14.152l-7.643-17.666l-0.138-0.291
								l-11.69-24.156l-0.145-0.297l-3.421-7.066l14.769-9.686l0.273-0.182l3.036-1.993l0.273-0.182l12.608-8.266
								c0,0,0.267-0.175,0.274-0.176l3.036-1.999l0.267-0.175l7.482-4.907l3.577,6.839l0.151,0.29
								c1.567,2.992,3.134,5.984,4.701,8.976c3.121,5.959,6.242,11.918,9.362,17.878c2.324,4.437,4.661,8.868,6.971,13.312
								c3.677,7.075,7.999,13.86,12.038,20.733c0.678,1.154,1.356,2.309,2.035,3.463
								C472.467,370.795,419.703,391.433,419.703,391.433z"/>
							<g>
								<g>
									<polygon style="fill:#FFF0E1;" points="409.43,324.795 409.156,324.97 396.669,333.202 396.396,333.384 393.689,335.168 
										393.543,334.872 396.244,333.088 396.518,332.913 408.987,324.696 409.26,324.514 									"/>
									<polygon style="fill:#FFF0E1;" points="425.427,313.862 425.596,314.136 425.329,314.318 421.122,317.086 420.843,317.269 
										412.842,322.543 412.569,322.725 412.393,322.451 412.666,322.269 425.153,314.037 									"/>
									<polygon style="fill:#FFF0E1;" points="435.868,307.37 432.438,309.631 432.165,309.813 429.002,311.892 428.735,312.073 
										428.56,311.799 428.826,311.618 435.717,307.081 									"/>
								</g>
								<g>
									<path style="fill:#FFF0E1;" d="M399.639,327.368c0.113,0.97-0.582,1.847-1.552,1.96c-0.97,0.113-1.847-0.582-1.96-1.552
										c-0.112-0.97,0.582-1.847,1.552-1.96C398.65,325.703,399.527,326.398,399.639,327.368z"/>
								</g>
								<g>
									<path style="fill:#FFF0E1;" d="M405.457,359.654l-0.171-0.276l1.468-0.914c1.199-0.746,1.623-2.309,0.966-3.559
										l-15.026-28.564l0.288-0.151l15.026,28.564c0.736,1.4,0.261,3.151-1.082,3.986L405.457,359.654z"/>
								</g>
								<g>
									<path style="fill:#FFF0E1;" d="M437.388,325.184c-1.392,0.161-2.976,0.01-4.741-0.454
										c-4.643-1.222-8.888-3.931-11.951-7.629l0.25-0.207c3.02,3.646,7.204,6.317,11.783,7.522
										c3.117,0.821,5.641,0.643,7.503-0.527l0.172,0.275C439.532,324.711,438.524,325.052,437.388,325.184z"/>
								</g>
								<g>
									<path style="fill:#FFF0E1;" d="M413.71,327.833c-0.308,0.219-0.658,0.351-1.02,0.393c-0.232,0.027-0.469,0.015-0.703-0.03
										c-0.603-0.126-1.114-0.478-1.443-1.002l-1.389-2.224l-0.169-0.275l-4.096-6.576l0.273-0.182l4.096,6.576l0.17,0.281
										l1.389,2.224c0.281,0.451,0.721,0.753,1.236,0.856c0.515,0.104,1.039-0.003,1.467-0.307
										c0.834-0.587,1.055-1.723,0.504-2.581l-1.458-2.262l-0.176-0.274l-4.192-6.506l0.273-0.182l4.192,6.506l0.176,0.274
										l1.459,2.268C414.946,325.815,414.689,327.145,413.71,327.833z"/>
								</g>
								<g>
									<path style="fill:#FFF0E1;" d="M430.068,317.479c-0.308,0.219-0.658,0.351-1.02,0.393c-0.232,0.027-0.462,0.021-0.696-0.03
										c-0.608-0.119-1.121-0.478-1.449-1.001l-1.574-2.523l-0.176-0.28l-4.072-6.539l0.267-0.175l0.006-0.001l4.072,6.539
										l0.169,0.274l1.581,2.535c0.28,0.445,0.721,0.753,1.236,0.856c0.515,0.104,1.038-0.009,1.467-0.307
										c0.833-0.593,1.055-1.723,0.504-2.581l-1.65-2.566l-0.176-0.274l-4.169-6.476l0.267-0.175l4.168,6.47l0.175,0.274
										l1.658,2.572C431.305,315.467,431.047,316.791,430.068,317.479z"/>
								</g>
							</g>
						</g>
						
							<line style="fill:none;stroke:#FFF0E1;stroke-width:0.2972;stroke-linecap:round;stroke-linejoin:round;stroke-miterlimit:10;" x1="432.565" y1="309.308" x2="466.388" y2="373.029"/>
					</g>
				</g>
				<polygon style="fill:#FFF0E1;" points="438.473,406.478 479.275,383.053 483.173,391.21 442.11,414.108 				"/>
			</g>
			<g>
				<path style="fill:#FF80A6;" d="M317.349,311.488c0,0,2.5-4.231,0.962-12.886c-1.539-8.655-2.693-30.388,20.772-31.542
					c23.464-1.154,30.003,16.637,26.542,27.167c-3.08,9.369-7.501,17.454-7.501,17.454s14.425,1.346,23.464,14.617
					c9.04,13.271,16.156,37.312,13.271,41.928c-2.885,4.616-15.963,14.809-15.963,14.809s2.308,24.426-5.193,25.388l-2.885,8.078
					l-66.546-0.962l-1.346-5.77c0,0-5.77-0.577-8.078-8.27c-2.308-7.693-1.154-19.425-1.154-19.425s-21.926-16.348-18.656-26.926
					c3.27-10.578,18.271-36.158,23.464-38.851C303.694,313.603,317.349,311.488,317.349,311.488z"/>
				<path style="fill:#3C2238;" d="M329.481,305.91c-1.951-4.195-3.255-8.69-3.851-13.278c-0.232-1.782-0.357-3.595-0.1-5.373
					c0.689-4.776,4.194-8.892,8.565-10.937c4.371-2.044,9.479-2.17,14.161-1.003c1.488,0.371,2.963,0.876,4.245,1.717
					c3.154,2.07,4.734,5.939,5.03,9.7c0.454,5.774-1.707,11.511-4.931,16.322c-3.224,4.811-7.47,8.834-11.679,12.812
					c-0.978,0.925-3.954,4.08-4.395,4.049c-0.714-0.05-1.29-2.181-2.165-3.648C332.402,312.988,331.114,309.352,329.481,305.91z"/>
				<g>
					<g>
						<circle style="fill:#FFF0E1;" cx="330.813" cy="322.931" r="1.923"/>
						<circle style="fill:#FFF0E1;" cx="342.112" cy="323.076" r="1.875"/>
						<g>
							
								<path style="fill:none;stroke:#3C2238;stroke-width:0.565;stroke-linecap:round;stroke-linejoin:round;stroke-miterlimit:10;" d="
								M330.839,322.865c-1.695-0.366-3.443,0.701-4.392,2.151c-0.95,1.45-1.267,3.214-1.526,4.928
								c-0.26,1.714-0.497,3.476-1.321,5.002c-1.089,2.016-3.207,3.439-5.485,3.685"/>
							
								<path style="fill:none;stroke:#3C2238;stroke-width:0.565;stroke-linecap:round;stroke-linejoin:round;stroke-miterlimit:10;" d="
								M341.669,322.918c1.176-0.062,2.253,0.697,2.998,1.609c3.427,4.193,1.413,10.941,4.513,15.381
								c0.799,1.144,2.075,2.12,3.464,1.981"/>
						</g>
					</g>
					<g>
						
							<ellipse transform="matrix(0.6121 -0.7908 0.7908 0.6121 -150.3175 403.4664)" style="fill:#FFCA63;" cx="336.102" cy="354.954" rx="16.637" ry="16.637"/>
						<g>
							<path style="fill:#3C2238;" d="M330.139,353.752c0,0.982-0.797,1.779-1.779,1.779c-0.983,0-1.779-0.797-1.779-1.779
								c0-0.983,0.796-1.779,1.779-1.779C329.343,351.973,330.139,352.77,330.139,353.752z"/>
							<path style="fill:#3C2238;" d="M345.814,353.752c0,0.982-0.797,1.779-1.779,1.779c-0.982,0-1.779-0.797-1.779-1.779
								c0-0.983,0.797-1.779,1.779-1.779C345.018,351.973,345.814,352.77,345.814,353.752z"/>
						</g>
						
							<path style="fill:none;stroke:#3C2238;stroke-width:0.565;stroke-linecap:round;stroke-linejoin:round;stroke-miterlimit:10;" d="
							M333.601,354.45c0,0,0.505,4.688,3.246,4.327s3.029-4.616,3.029-4.616"/>
					</g>
					<g>
						<g>
							
								<path style="fill:none;stroke:#3C2238;stroke-width:0.565;stroke-linecap:round;stroke-linejoin:round;stroke-miterlimit:10;" d="
								M276.92,350.245c2.974,4.784,3.641,10.933,1.761,16.243c-0.061,0.173-0.395,0.269-0.33,0.098"/>
							<g>
								
									<path style="fill:none;stroke:#3C2238;stroke-width:0.565;stroke-linecap:round;stroke-linejoin:round;stroke-miterlimit:10;" d="
									M300.424,333.75c2.623,3.721,5.191,7.483,7.71,11.276c2.039,3.07,4.048,6.162,5.964,9.311
									c1.67,2.746,4.454,5.681,4.475,9.079c0.018,2.954-2.132,5.558-3.778,7.832c-1.941,2.681-4.297,5.06-6.483,7.537
									c-1.709,1.936-3.443,3.873-5.333,5.637c-0.67,0.625-2.321,2.526-3.42,2.267c-2.452-0.577-5.866-4.616-5.866-4.616"/>
								
									<polyline style="fill:none;stroke:#3C2238;stroke-width:0.565;stroke-linecap:round;stroke-linejoin:round;stroke-miterlimit:10;" points="
									304.463,382.794 311.099,389.285 322.061,376.447 316.003,370.245 								"/>
								
									<path style="fill:none;stroke:#3C2238;stroke-width:0.565;stroke-linecap:round;stroke-linejoin:round;stroke-miterlimit:10;" d="
									M368.365,327.259c0,0-16.733,39.668-15.002,42.553c1.731,2.885,24.522,14.425,25.532,13.848"/>
								
									<polyline style="fill:none;stroke:#3C2238;stroke-width:0.565;stroke-linecap:round;stroke-linejoin:round;stroke-miterlimit:10;" points="
									359.422,374.139 356.392,380.342 369.519,387.41 372.548,381.063 								"/>
							</g>
							
								<path style="fill:none;stroke:#3C2238;stroke-width:0.565;stroke-linecap:round;stroke-linejoin:round;stroke-miterlimit:10;" d="
								M394.474,357.407c-2.522,1.761-4.393,4.432-5.187,7.403c-0.794,2.971-0.504,6.22,0.804,9.004"/>
						</g>
						
							<path style="fill:none;stroke:#3C2238;stroke-width:0.565;stroke-linecap:round;stroke-linejoin:round;stroke-miterlimit:10;" d="
							M302.925,409.768c0,0,60.536,1.635,70.777-1.346"/>
					</g>
				</g>
			</g>
			<g>
				<path style="fill:#FFCA63;" d="M415.332,396.405l4.158,11.632l0.192,0.545l7.463,20.887l1.176,3.303l-72.52,27.021
					c0,0-1.081-1.248-2.171-2.932c-1.531-2.367-3.086-5.595-1.688-7.425c1.06-1.407,6.909-6.205,13.286-12.652
					c0.12-0.122,0.24-0.243,0.369-0.369c2.485-2.543,5.047-5.324,7.434-8.249c0.116-0.131,0.219-0.269,0.332-0.41
					c1.792-2.219,3.477-4.519,4.932-6.844c0.086-0.153,0.176-0.297,0.271-0.453c0.984-1.61,1.864-3.236,2.6-4.864
					c0.073-0.159,0.139-0.305,0.203-0.461c0.916-2.091,1.58-4.176,1.92-6.217L415.332,396.405z"/>
				<g>
					<g>
						<path style="fill:#FFF0E1;" d="M419.491,408.037l0.192,0.545c-6.709,7.154-9.906,17.324-8.405,27.052l-0.509,0.08
							C409.232,425.745,412.551,415.31,419.491,408.037z"/>
					</g>
					<g>
						<path style="fill:#FFF0E1;" d="M376.184,449.941l-0.472,0.209c-2.369-5.235-5.971-9.824-10.483-13.369
							c0.12-0.122,0.24-0.243,0.369-0.369C370.16,440.006,373.79,444.639,376.184,449.941z"/>
					</g>
					<g>
						<g>
							<path style="fill:#FFF0E1;" d="M383.467,434.85c-0.025,0.02-0.06,0.045-0.089,0.055c-0.097,0.036-0.202,0.02-0.276-0.062
								c-2.879-2.855-6.316-5.14-10.07-6.679c0.116-0.131,0.219-0.269,0.332-0.41c3.757,1.549,7.211,3.849,10.101,6.733
								C383.565,434.582,383.571,434.745,383.467,434.85z"/>
						</g>
						<g>
							<path style="fill:#FFF0E1;" d="M388.86,426.91c-0.031,0.034-0.066,0.058-0.095,0.069c-0.097,0.036-0.195,0.007-0.273-0.052
								c-2.924-2.739-6.401-4.778-10.196-6.015c0.086-0.153,0.176-0.297,0.271-0.453c3.815,1.263,7.326,3.333,10.277,6.084
								C388.948,426.646,388.954,426.809,388.86,426.91z"/>
						</g>
						<g>
							<path style="fill:#FFF0E1;" d="M394.153,422.187c-0.032,0.034-0.066,0.058-0.105,0.072c-0.087,0.033-0.192,0.016-0.263-0.056
								c-3.563-3.184-7.959-5.474-12.618-6.609c0.073-0.159,0.139-0.305,0.203-0.461c4.705,1.141,9.158,3.465,12.758,6.689
								C394.238,421.913,394.243,422.076,394.153,422.187z"/>
						</g>
					</g>
				</g>
				<path style="fill:#FFF0E1;" d="M427.146,429.468l1.176,3.303l-72.52,27.021c0,0-1.081-1.248-2.171-2.932L427.146,429.468z"/>
				<path style="fill:#3C2238;" d="M383.289,408.916c0,0,7.859,1.608,15.646-1.996c7.787-3.604,16.398-10.516,16.398-10.516
					L383.289,408.916z"/>
			</g>
			<g>
				<path style="fill:#FFCA63;" d="M398.498,280.268c-8.189-3.053-17.319,1.125-20.383,9.334c-0.095,0.243-0.169,0.482-0.25,0.727
					l5.998,2.237c0.067-0.247,0.149-0.492,0.236-0.729c1.836-4.901,7.281-7.396,12.162-5.571c4.889,1.82,7.368,7.276,5.533,12.177
					c-0.087,0.237-0.183,0.479-0.29,0.706l5.984,2.235c0.101-0.235,0.194-0.463,0.29-0.706
					C410.841,292.47,406.693,283.33,398.498,280.268z"/>
				<path style="fill:#6F9AFF;" d="M442.796,435.281c-8.712,0.685-15.229,8.324-14.546,17.059c0.016,0.26,0.05,0.508,0.08,0.764
					l6.382-0.501c-0.043-0.253-0.073-0.509-0.093-0.76c-0.402-5.218,3.483-9.777,8.678-10.18c5.201-0.412,9.749,3.49,10.152,8.709
					c0.021,0.251,0.037,0.512,0.035,0.762l6.368-0.497c-0.007-0.255-0.019-0.502-0.035-0.762
					C459.133,441.139,451.517,434.601,442.796,435.281z"/>
				<path style="fill:#FF8878;" d="M294.982,444.001c2.941,8.23,12.02,12.52,20.271,9.574c0.247-0.083,0.477-0.181,0.717-0.277
					l-2.154-6.028c-0.232,0.108-0.472,0.203-0.71,0.289c-4.931,1.754-10.348-0.803-12.096-5.712
					c-1.759-4.912,0.817-10.323,5.748-12.077c0.237-0.086,0.484-0.169,0.727-0.233l-2.146-6.016c-0.245,0.074-0.48,0.15-0.727,0.233
					C296.361,426.7,292.043,435.762,294.982,444.001z"/>
			</g>
			<g>
				<g>
					<path style="fill:#FFF0E1;" d="M390.388,311.969l-2.564,1.194c-1.122,0.522-2.024,1.424-2.546,2.546l-1.194,2.564
						c-0.127,0.272-0.513,0.272-0.64,0l-1.194-2.564c-0.522-1.122-1.424-2.024-2.546-2.546l-2.564-1.194
						c-0.272-0.127-0.272-0.513,0-0.64l2.564-1.194c1.122-0.523,2.024-1.424,2.546-2.546l1.194-2.564
						c0.126-0.272,0.513-0.272,0.64,0l1.194,2.564c0.523,1.122,1.424,2.024,2.546,2.546l2.564,1.194
						C390.66,311.456,390.66,311.842,390.388,311.969z"/>
				</g>
				<g>
					<path style="fill:#FFF0E1;" d="M454.476,421.504l-2.564,1.194c-1.122,0.522-2.024,1.424-2.546,2.546l-1.194,2.564
						c-0.127,0.272-0.513,0.272-0.64,0l-1.194-2.564c-0.522-1.122-1.424-2.024-2.546-2.546l-2.564-1.194
						c-0.272-0.127-0.272-0.513,0-0.64l2.564-1.194c1.122-0.523,2.024-1.424,2.546-2.546l1.194-2.564
						c0.126-0.272,0.513-0.272,0.64,0l1.194,2.564c0.523,1.122,1.424,2.024,2.546,2.546l2.564,1.194
						C454.748,420.991,454.748,421.378,454.476,421.504z"/>
				</g>
				<g>
					<path style="fill:#FFF0E1;" d="M289.281,403.632l-2.564,1.193c-1.122,0.523-2.024,1.424-2.546,2.546l-1.194,2.564
						c-0.127,0.272-0.513,0.272-0.64,0l-1.194-2.564c-0.522-1.122-1.424-2.024-2.546-2.546l-2.564-1.193
						c-0.272-0.127-0.272-0.513,0-0.64l2.564-1.194c1.122-0.522,2.024-1.424,2.546-2.546l1.194-2.564
						c0.126-0.272,0.513-0.272,0.64,0l1.194,2.564c0.523,1.122,1.424,2.024,2.546,2.546l2.564,1.194
						C289.553,403.119,289.553,403.505,289.281,403.632z"/>
				</g>
				<g>
					<path style="fill:#FFF0E1;" d="M341.115,435.802l-2.564,1.193c-1.122,0.523-2.024,1.424-2.546,2.546l-1.194,2.564
						c-0.127,0.272-0.513,0.272-0.64,0l-1.194-2.564c-0.522-1.122-1.424-2.024-2.546-2.546l-2.564-1.193
						c-0.272-0.127-0.272-0.513,0-0.64l2.564-1.194c1.122-0.522,2.024-1.424,2.546-2.546l1.194-2.564
						c0.127-0.272,0.513-0.272,0.64,0l1.194,2.564c0.523,1.122,1.424,2.024,2.546,2.546l2.564,1.194
						C341.387,435.289,341.387,435.676,341.115,435.802z"/>
				</g>
				<g>
					<path style="fill:#FFF0E1;" d="M310.243,307.866l-2.564,1.193c-1.122,0.523-2.024,1.424-2.546,2.546l-1.194,2.564
						c-0.127,0.272-0.513,0.272-0.64,0l-1.194-2.564c-0.522-1.122-1.424-2.024-2.546-2.546l-2.564-1.193
						c-0.272-0.127-0.272-0.513,0-0.64l2.564-1.194c1.122-0.522,2.024-1.424,2.546-2.546l1.194-2.564
						c0.126-0.272,0.513-0.272,0.64,0l1.194,2.564c0.523,1.122,1.424,2.024,2.546,2.546l2.564,1.194
						C310.515,307.352,310.515,307.739,310.243,307.866z"/>
				</g>
				<g>
					<path style="fill:#FFF0E1;" d="M406.754,385.993l-2.564,1.194c-1.122,0.522-2.024,1.424-2.546,2.546l-1.194,2.564
						c-0.127,0.272-0.513,0.272-0.64,0l-1.194-2.564c-0.522-1.122-1.424-2.024-2.546-2.546l-2.564-1.194
						c-0.272-0.127-0.272-0.513,0-0.64l2.564-1.194c1.122-0.522,2.024-1.424,2.546-2.546l1.194-2.564
						c0.127-0.272,0.513-0.272,0.64,0l1.194,2.564c0.523,1.122,1.424,2.024,2.546,2.546l2.564,1.194
						C407.025,385.48,407.025,385.866,406.754,385.993z"/>
				</g>
			</g>
		</g>
	</g>
</g>
</svg>
