<?xml version="1.0" encoding="utf-8"?>
<!-- Generator: Adobe Illustrator 27.5.0, SVG Export Plug-In . SVG Version: 6.00 Build 0)  -->
<svg version="1.1" xmlns="http://www.w3.org/2000/svg" xmlns:xlink="http://www.w3.org/1999/xlink" x="0px" y="0px"
	 viewBox="0 0 3710 3710" style="enable-background:new 0 0 3710 3710;" xml:space="preserve">
<g id="Background">
	<g>
		<g>
			<rect style="fill:#FFFFFF;" width="3710" height="3710"/>
		</g>
	</g>
</g>
<g id="Illustration">
	<g>
		<linearGradient id="SVGID_1_" gradientUnits="userSpaceOnUse" x1="3598.1179" y1="4016.4812" x2="1160.4473" y2="989.0471">
			<stop  offset="0" style="stop-color:#B37CFF"/>
			<stop  offset="1" style="stop-color:#F895E7"/>
		</linearGradient>
		<path style="opacity:0.3;fill:url(#SVGID_1_);" d="M2927.499,2822.571c-55.992,58.946-108.972,96.96-150.83,126.994
			c-492.033,353.039-1074.238,250.13-1197.973,224.998c-182.718-37.111-535.907-108.846-791.257-409.132
			c-386.323-454.308-326.167-1170.057-26.508-1642.533c54.812-86.424,344.346-566.096,932.822-643.021
			c356.139-46.554,771.283,47.34,1071.919,299.213C3396.734,1307.795,3351.809,2375.871,2927.499,2822.571z"/>
		<g>
			
				<linearGradient id="SVGID_00000134215933586746898500000001864304719824946610_" gradientUnits="userSpaceOnUse" x1="6078.3267" y1="963.2631" x2="7126.0313" y2="963.2631" gradientTransform="matrix(0.9777 0.21 -0.21 0.9777 -5382.4688 -854.6604)">
				<stop  offset="0" style="stop-color:#A737D5"/>
				<stop  offset="1" style="stop-color:#EF497A"/>
			</linearGradient>
			<path style="fill:url(#SVGID_00000134215933586746898500000001864304719824946610_);" d="M486.559,774.376
				c-4.537-10.397,9.426-20.411,20.17-14.532c109.108,59.693,379.596,248.725,396.381,662.381
				c21.059,518.992,176.848,681.306,349.353,766.156c0,0-218.323-14.831-383.826-178.176
				C462.293,1609.153,567.233,959.248,486.559,774.376z"/>
			<path style="fill:#FFFFFF;" d="M587.752,919.189c22.18,54.152,43.099,108.713,61.657,163.968
				c18.893,55.144,35.828,110.851,50.716,167.029c14.637,56.234,28.045,112.754,38.647,169.813
				c10.898,57.001,18.947,114.473,26.796,172.212c8.216,57.651,16.115,115.786,30.915,173.082
				c14.708,57.19,37.586,113.411,71.802,163.781c8.546,12.55,17.396,25.001,27.027,36.835c9.374,12.006,19.383,23.625,29.636,35.072
				c20.647,22.804,43.139,44.372,67.454,64.301c48.76,39.751,104.821,72.674,164.632,98.278c6.295,2.695,14.173,0.31,17.596-5.326
				c3.361-5.534,1.176-12.146-4.864-14.935l-0.043-0.02c-14.323-6.596-28.534-13.331-42.318-20.612
				c-6.966-3.542-13.721-7.354-20.562-11.05c-6.658-3.925-13.507-7.617-20.008-11.724c-26.338-16.024-51.257-33.701-74.454-52.968
				c-46.573-38.282-86.453-83.137-119.24-131.201c-16.077-24.215-30.015-49.516-41.613-75.766
				c-11.575-26.262-20.805-53.446-28.232-81.191c-14.866-55.521-23.233-112.981-31.928-170.555
				c-8.783-57.573-18.067-115.355-30.087-172.589c-5.92-28.631-12.435-57.14-19.54-85.506c-3.457-14.204-7.233-28.333-10.979-42.467
				c-3.904-14.096-7.897-28.167-12.024-42.2c-16.627-56.105-35.238-111.651-55.869-166.514
				c-20.938-54.763-43.568-108.947-68.602-162.169c-0.716-1.522-2.742-2.184-4.526-1.48
				C588.009,915.968,587.145,917.697,587.752,919.189z"/>
		</g>
		<g>
			<g>
				
					<linearGradient id="SVGID_00000090294729367234631820000017195484093291110589_" gradientUnits="userSpaceOnUse" x1="1797.387" y1="10054.7578" x2="2802.1541" y2="10054.7578" gradientTransform="matrix(0.4814 -0.8766 0.8766 0.4814 -8986.3506 -1442.1274)">
					<stop  offset="0" style="stop-color:#CE1567"/>
					<stop  offset="1" style="stop-color:#7A1DBC"/>
				</linearGradient>
				<path style="fill:url(#SVGID_00000090294729367234631820000017195484093291110589_);" d="M954.015,1940.423
					c-9.393,14.491-30.533,14.681-40.369,0.487c-54.278-78.316-187.715-313.62-96.077-629.539
					c77.385-266.779,93.994-418.792,96.752-488.322c0.583-14.703,19.597-20.115,27.86-7.94
					C1033.34,949.439,1294.361,1415.322,954.015,1940.423z"/>
				<path style="fill:#FFFFFF;" d="M931.204,1935.28c-0.401,0.15-0.821,0.263-1.259,0.336c-3.672,0.613-7.147-1.867-7.76-5.539
					c-0.695-4.164-68.451-420.657,22.391-796.457c0.875-3.616,4.517-5.841,8.139-4.97c3.62,0.876,5.844,4.519,4.97,8.139
					c-90.181,373.063-22.89,786.931-22.2,791.067C936.026,1931.091,934.166,1934.172,931.204,1935.28z"/>
			</g>
		</g>
		<g>
			
				<linearGradient id="SVGID_00000111149570764281460000000010435794770941768082_" gradientUnits="userSpaceOnUse" x1="1950.918" y1="3057.5071" x2="1816.1987" y2="-930.2491">
				<stop  offset="0" style="stop-color:#2B3582"/>
				<stop  offset="1" style="stop-color:#150E42"/>
			</linearGradient>
			<path style="fill:url(#SVGID_00000111149570764281460000000010435794770941768082_);" d="M1003.11,956.613
				c0-95.129,77.117-172.245,172.246-172.245h1464.785c80.811,0,147.446,63.329,151.555,144.036l108.122,2123.665
				c3.216,63.156-46.5,116.428-109.727,117.577l-1678.829,30.512c-59.41,1.08-108.152-46.784-108.152-106.204V956.613z"/>
			<path style="fill:#FFFFFF;" d="M1356.627,3164.054c-0.018,0-0.035,0-0.053,0l-187.851-2.428
				c-62.814-0.815-113.915-52.582-113.915-115.397v-283.62c0-2.217,1.796-4.01,4.01-4.01c2.215,0,4.01,1.793,4.01,4.01v283.62
				c0,58.448,47.55,106.617,105.998,107.376l187.849,2.428c2.215,0.027,3.987,1.849,3.959,4.061
				C1360.607,3162.292,1358.817,3164.054,1356.627,3164.054z"/>
			<path style="fill:#FFFFFF;" d="M1058.818,2678.766c-2.214,0-4.01-1.794-4.01-4.011v-45.932c0-2.217,1.796-4.011,4.01-4.011
				c2.215,0,4.01,1.794,4.01,4.011v45.932C1062.829,2676.972,1061.033,2678.766,1058.818,2678.766z"/>
			<g>
				
					<linearGradient id="SVGID_00000122686572009327201380000006238326067481301424_" gradientUnits="userSpaceOnUse" x1="2519.709" y1="577.8949" x2="1026.3774" y2="4156.3765">
					<stop  offset="0" style="stop-color:#53D8FF"/>
					<stop  offset="1" style="stop-color:#3840F7"/>
				</linearGradient>
				<path style="fill:url(#SVGID_00000122686572009327201380000006238326067481301424_);" d="M1123.113,817.054
					c-0.179-30.435,26.587-53.991,56.747-49.902c200.03,27.126,887.88,111.021,1456.585,67.365
					c25.936-1.991,48.443,17.659,49.823,43.634l113.372,2133.131c1.554,29.249-20.78,54.26-50.019,55.991
					c-239.187,14.155-1224.234,68.874-1575.586,32.073c-21.384-2.24-37.616-20.244-37.743-41.744L1123.113,817.054z"/>
				<path style="opacity:0.6;fill:#FFFFFF;" d="M1146.675,870.509c-0.172-29.289,25.586-51.959,54.611-48.022
					c192.497,26.104,854.446,106.841,1401.737,64.828c24.958-1.916,46.618,16.995,47.947,41.991l109.103,2052.807
					c1.496,28.147-19.998,52.217-48.135,53.883c-230.18,13.622-1178.135,66.28-1516.256,30.865
					c-20.579-2.155-36.2-19.481-36.321-40.172L1146.675,870.509z"/>
				<path style="opacity:0.52;fill:#FFFFFF;" d="M1324.874,1028.778l20.444,440.102c0.68,14.637,12.505,26.276,27.152,26.689
					c81.507,2.299,335.487,8.494,478.893,1.017c16.222-0.846,29.055-13.969,29.593-30.204c2.734-82.535,8.719-322.76-10.089-423.183
					c-3.038-16.221-16.981-28.108-33.475-28.684l-481.763-16.848C1338.258,997.06,1324.067,1011.414,1324.874,1028.778z"/>
				<g style="opacity:0.6;">
					<path style="fill:#FFFFFF;" d="M2542.808,1067.088c2.491,0,4.469-2.037,4.397-4.527l-0.598-20.474
						c-0.073-2.49-2.17-4.563-4.661-4.608l-553.554-9.865c-2.491-0.044-3.851,1.842-3.024,4.191l10.922,31.01
						c0.828,2.349,3.543,4.272,6.034,4.272H2542.808z"/>
				</g>
				<g style="opacity:0.6;">
					<path style="fill:#FFFFFF;" d="M1988.392,1136.186c-2.491-0.044-3.851,1.842-3.024,4.191l10.922,31.01
						c0.828,2.35,3.543,4.272,6.034,4.272h540.485c2.491,0,4.469-2.037,4.397-4.527l-0.598-20.474
						c-0.073-2.49-2.17-4.564-4.661-4.608L1988.392,1136.186z"/>
				</g>
				<g style="opacity:0.6;">
					<path style="fill:#FFFFFF;" d="M1988.392,1249.74c-2.491-0.044-3.851,1.842-3.024,4.191l10.922,31.01
						c0.828,2.35,3.543,4.272,6.034,4.272h540.485c2.491,0,4.469-2.037,4.397-4.527l-0.598-20.474
						c-0.073-2.49-2.17-4.563-4.661-4.608L1988.392,1249.74z"/>
				</g>
				<g style="opacity:0.6;">
					<path style="fill:#FFFFFF;" d="M2594.122,1633.787c2.491,0,4.395-2.034,4.231-4.519l-1.353-20.49
						c-0.164-2.486-2.336-4.535-4.827-4.555l-1262.912-9.954c-2.491-0.02-3.259,1.559-1.708,3.507l25.852,32.467
						c1.552,1.949,4.859,3.543,7.35,3.543H2594.122z"/>
				</g>
				<g style="opacity:0.6;">
					<path style="fill:#FFFFFF;" d="M1329.26,1676.314c-2.491-0.02-3.259,1.559-1.708,3.507l25.852,32.468
						c1.552,1.949,4.859,3.543,7.35,3.543h1233.367c2.491,0,4.395-2.034,4.231-4.519l-1.353-20.489
						c-0.164-2.486-2.336-4.535-4.827-4.555L1329.26,1676.314z"/>
				</g>
				<path style="opacity:0.6;fill:#FFFFFF;" d="M1336.307,1813.4c29.758-2.28,85.484-3.338,116.159-3.766
					c12.998-0.182,24.398,8.623,27.446,21.26c5.92,24.544,14.087,67.16,13.059,112.314c-0.308,13.523-11.385,24.317-24.911,24.172
					l-113.199-1.219c-13.921-0.15-25.478-10.792-26.773-24.653l-9.952-106.492C1317.107,1824,1325.276,1814.245,1336.307,1813.4z"/>
				<g style="opacity:0.6;">
					<path style="fill:#FFFFFF;" d="M1533.021,1856.601c-2.489-0.104-4.222,1.826-3.852,4.29l6.494,43.24
						c0.37,2.464,2.711,4.479,5.202,4.479h300.191c2.491,0,4.504-2.038,4.473-4.529l-0.373-29.909
						c-0.031-2.491-2.093-4.614-4.581-4.718L1533.021,1856.601z"/>
				</g>
				<path style="opacity:0.6;fill:#FFFFFF;" d="M1953.002,1813.4c29.757-2.28,85.484-3.338,116.159-3.766
					c12.998-0.182,24.398,8.623,27.446,21.26c5.92,24.544,14.087,67.16,13.059,112.314c-0.308,13.523-11.385,24.317-24.91,24.172
					l-113.199-1.219c-13.92-0.15-25.478-10.792-26.773-24.653l-9.952-106.492C1933.802,1824,1941.971,1814.245,1953.002,1813.4z"/>
				<g style="opacity:0.6;">
					<path style="fill:#FFFFFF;" d="M2149.716,1856.601c-2.489-0.104-4.222,1.826-3.853,4.29l6.494,43.24
						c0.37,2.464,2.711,4.479,5.202,4.479h300.191c2.491,0,4.504-2.038,4.473-4.529l-0.372-29.909
						c-0.031-2.491-2.093-4.614-4.582-4.718L2149.716,1856.601z"/>
				</g>
				<g>
					<g style="opacity:0.6;">
						<path style="fill:#FFFFFF;" d="M1302.361,2177.717c3.878,11.467,17.235,19.422,32.441,19.321l1239.251-8.24
							c14.019-0.093,25.234-9.109,24.927-20.04c-0.298-10.627-11.397-19.135-25.027-19.183l-1239.284-4.408
							C1312.794,2145.088,1296.781,2161.22,1302.361,2177.717z"/>
					</g>
					<g style="opacity:0.6;">
						<path style="fill:#FFFFFF;" d="M1302.361,2401.592c3.878,11.467,17.235,19.422,32.441,19.321l1239.251-8.24
							c14.019-0.093,25.234-9.109,24.927-20.04c-0.298-10.627-11.397-19.135-25.027-19.183l-1239.284-4.408
							C1312.794,2368.963,1296.781,2385.095,1302.361,2401.592z"/>
					</g>
					<g style="opacity:0.6;">
						<path style="fill:#FFFFFF;" d="M1302.361,2625.467c3.878,11.467,17.235,19.422,32.441,19.321l1239.251-8.24
							c14.019-0.093,25.234-9.109,24.927-20.041c-0.298-10.627-11.397-19.134-25.027-19.183l-1239.284-4.408
							C1312.794,2592.838,1296.781,2608.97,1302.361,2625.467z"/>
					</g>
					<g style="opacity:0.6;">
						<path style="fill:#FFFFFF;" d="M1302.361,2849.342L1302.361,2849.342c3.878,11.467,17.235,19.422,32.441,19.321l1239.251-8.24
							c14.019-0.094,25.234-9.109,24.927-20.041c-0.298-10.627-11.397-19.134-25.027-19.183l-1239.284-4.408
							C1312.794,2816.713,1296.781,2832.845,1302.361,2849.342z"/>
					</g>
				</g>
				<g>
					
						<linearGradient id="SVGID_00000060000710888701316170000012969974084108620194_" gradientUnits="userSpaceOnUse" x1="1861.1123" y1="587.6532" x2="1440.5005" y2="1485.7142">
						<stop  offset="0" style="stop-color:#A737D5"/>
						<stop  offset="1" style="stop-color:#EF497A"/>
					</linearGradient>
					<path style="fill:url(#SVGID_00000060000710888701316170000012969974084108620194_);" d="M1814.142,1119.078
						c-2.428-2.984-6.235-4.223-10.273-4.138l-367.689,7.713l-9.288-29.504c-1.291-4.11-5.156-6.743-9.528-6.628l-50.483,1.326
						c-5.413,0.142-9.797,3.906-9.797,9.309c0,5.403,4.384,8.948,9.797,8.82l43.141-1.019l78.063,249.444
						c1.314,4.198,5.256,7.086,9.724,7.146l258.079,3.465c6.057,0.081,10.974-3.72,10.974-9.447c0-5.726-4.917-9.647-10.974-9.712
						l-250.549-2.701l-20.109-64.766l275.332,0.417c5.637,0.009,10.606-3.681,12.186-8.797l43.455-140.505
						C1817.336,1125.838,1816.572,1122.065,1814.142,1119.078z"/>
					
						<linearGradient id="SVGID_00000146467543462630358180000003431479267587063973_" gradientUnits="userSpaceOnUse" x1="1911.9275" y1="611.4557" x2="1491.3153" y2="1509.5175">
						<stop  offset="0" style="stop-color:#A737D5"/>
						<stop  offset="1" style="stop-color:#EF497A"/>
					</linearGradient>
					<path style="fill:url(#SVGID_00000146467543462630358180000003431479267587063973_);" d="M1535.562,1376.934
						c-21.234-0.33-38.414,16.197-38.414,36.84c0,20.643,17.179,37.888,38.414,38.446c21.362,0.561,38.839-15.959,38.839-36.831
						C1574.401,1394.518,1556.925,1377.266,1535.562,1376.934z M1535.562,1432.144c-9.925-0.233-17.979-8.281-17.979-17.942
						c0-9.662,8.054-17.374,17.979-17.191c9.953,0.183,18.071,8.233,18.071,17.945
						C1553.634,1424.666,1545.515,1432.377,1535.562,1432.144z"/>
					
						<linearGradient id="SVGID_00000132066486283473651600000008297242503565113527_" gradientUnits="userSpaceOnUse" x1="2054.4126" y1="678.1879" x2="1633.8014" y2="1576.2476">
						<stop  offset="0" style="stop-color:#A737D5"/>
						<stop  offset="1" style="stop-color:#EF497A"/>
					</linearGradient>
					<path style="fill:url(#SVGID_00000132066486283473651600000008297242503565113527_);" d="M1707.601,1379.609
						c-22.286-0.347-40.315,16.577-40.315,37.723c0,21.146,18.029,38.823,40.315,39.408c22.424,0.589,40.771-16.327,40.771-37.713
						C1748.372,1397.641,1730.025,1379.957,1707.601,1379.609z M1707.601,1436.171c-10.417-0.244-18.87-8.494-18.87-18.391
						c0-9.898,8.453-17.795,18.87-17.603c10.447,0.192,18.969,8.444,18.969,18.394
						C1726.571,1428.521,1718.048,1436.416,1707.601,1436.171z"/>
				</g>
			</g>
			
				<linearGradient id="SVGID_00000067956565294290915830000016271674301262446491_" gradientUnits="userSpaceOnUse" x1="2162.0205" y1="276.1714" x2="1488.2712" y2="1162.4728">
				<stop  offset="0" style="stop-color:#2B3582"/>
				<stop  offset="1" style="stop-color:#150E42"/>
			</linearGradient>
			<path style="fill:url(#SVGID_00000067956565294290915830000016271674301262446491_);" d="M1998.596,494.816
				c-52.91-36.809-98.916-36.079-131.302-26.523c-29.543,8.717-48.691,37.24-45.881,67.915l13.967,152.446l166.198,14.749
				C2001.577,703.403,2102.361,567.003,1998.596,494.816z M1925.508,617.803c-22.887,0-41.441-18.553-41.441-41.441
				c0-22.888,18.554-41.442,41.441-41.442c22.888,0,41.441,18.554,41.441,41.442C1966.949,599.25,1948.396,617.803,1925.508,617.803
				z"/>
			<path style="fill:#FFFFFF;" d="M1851.981,624.526c-2.05,0-3.799-1.563-3.989-3.646l-2.225-24.278
				c-0.203-2.205,1.422-4.156,3.627-4.359c2.25-0.211,4.159,1.422,4.359,3.631l2.224,24.278c0.204,2.205-1.422,4.155-3.626,4.359
				C1852.226,624.522,1852.102,624.526,1851.981,624.526z M1847.622,576.949c-2.05,0-3.799-1.563-3.989-3.646l-1.69-18.43
				c-2.679-29.221,15.709-56.428,43.717-64.696c19.836-5.855,40.274-6.693,60.742-2.495c2.169,0.442,3.568,2.565,3.123,4.735
				c-0.445,2.166-2.547,3.552-4.733,3.121c-19.173-3.924-38.3-3.145-56.862,2.33c-24.346,7.187-40.329,30.853-38.001,56.275
				l1.69,18.43c0.204,2.205-1.422,4.156-3.627,4.359C1847.867,576.945,1847.743,576.949,1847.622,576.949z"/>
			
				<linearGradient id="SVGID_00000139296130614570417990000015990071518316173492_" gradientUnits="userSpaceOnUse" x1="2235.9258" y1="332.3508" x2="1562.1757" y2="1218.6531">
				<stop  offset="0" style="stop-color:#2B3582"/>
				<stop  offset="1" style="stop-color:#150E42"/>
			</linearGradient>
			<path style="fill:url(#SVGID_00000139296130614570417990000015990071518316173492_);" d="M1608.549,787.172v-76.645
				c0-26.458,21.929-47.649,48.372-46.743l528.434,18.105c23.452,0.803,42.444,19.314,43.848,42.738l4.416,73.645L1608.549,787.172z
				"/>
			<path style="fill:#FFFFFF;" d="M1805.589,692.664h-22.725c-2.215,0-4.011-1.794-4.011-4.01c0-2.217,1.796-4.01,4.011-4.01h22.725
				c2.215,0,4.01,1.794,4.01,4.01C1809.6,690.87,1807.804,692.664,1805.589,692.664z"/>
			<path style="fill:#FFFFFF;" d="M1637.151,763.104c-2.214,0-4.01-1.794-4.01-4.011v-31.006c0-23.957,19.49-43.445,43.447-43.445
				h83.549c2.215,0,4.011,1.794,4.011,4.01c0,2.217-1.796,4.01-4.011,4.01h-83.549c-19.533,0-35.426,15.893-35.426,35.424v31.006
				C1641.162,761.311,1639.366,763.104,1637.151,763.104z"/>
			
				<linearGradient id="SVGID_00000114768966779917607620000012680973080854183571_" gradientUnits="userSpaceOnUse" x1="2151.0215" y1="386.5648" x2="1685.8115" y2="1240.7849">
				<stop  offset="0" style="stop-color:#53D8FF"/>
				<stop  offset="1" style="stop-color:#3840F7"/>
			</linearGradient>
			<path style="fill:url(#SVGID_00000114768966779917607620000012680973080854183571_);" d="M1393.234,806.526
				c1.275-26.541,23.165-47.404,49.737-47.405l924.067-0.025c33.227-0.001,61.634,23.91,67.301,56.65l0.782,4.518
				c6.208,35.861-21.402,68.661-57.796,68.661h-948.038c-21.781,0-39.138-18.211-38.092-39.966L1393.234,806.526z"/>
		</g>
		<g>
			<g>
				
					<linearGradient id="SVGID_00000062896796912687325500000013620506845509078147_" gradientUnits="userSpaceOnUse" x1="-2855.0872" y1="2105.8311" x2="-201.2941" y2="3957.3147" gradientTransform="matrix(-1 0 0 1 -644.2802 0)">
					<stop  offset="0" style="stop-color:#FDF53F"/>
					<stop  offset="1" style="stop-color:#D93C65"/>
				</linearGradient>
				<path style="fill:url(#SVGID_00000062896796912687325500000013620506845509078147_);" d="M1793.606,3127.361v-567.917
					c0-74.616-59.965-135.33-134.576-136.142c-223.927-2.438-685.766-2.56-1063.65,29.284
					c-51.566,4.345-91.676,46.609-93.545,98.324l-35.318,549.061c-2.625,72.625,54.794,133.299,127.453,134.679l1069.573,20.325
					C1734.971,3256.333,1793.606,3198.802,1793.606,3127.361z"/>
				<path style="fill:#FFFFFF;" d="M1663.909,2620.891c0.952,48.323-0.483,124.997-1.658,174.534
					c-0.611,25.771-23.237,45.412-48.842,42.411l-184.285-21.599c-24.55-2.878-41.846-25.504-38.182-49.949l22.62-150.9
					c3.212-21.423,21.615-37.272,43.276-37.272h163.318C1643.954,2578.115,1663.44,2597.097,1663.909,2620.891z"/>
				<path style="opacity:0.37;fill:#FFFFFF;" d="M1182.312,2906.868l-153.727,16.583c-21.511,2.323-39.866-15.418-38.281-36.996
					l33.607-457.291c64.442-2.043,128.005-3.533,189.339-4.58v447.825C1213.251,2890.112,1199.912,2904.969,1182.312,2906.868z"/>
				<path style="fill:#FFFFFF;" d="M1119.305,2827.61c-0.474,8.226-7.288,14.568-15.422,14.568c-0.303,0-0.605-0.011-0.907-0.03
					c-8.527-0.493-15.04-7.802-14.537-16.329l23.179-399.108c10.394-0.257,20.704-0.489,31.012-0.718L1119.305,2827.61z"/>
				<g>
					
						<linearGradient id="SVGID_00000010305430986998936560000013318617436544925876_" gradientUnits="userSpaceOnUse" x1="-2164.6326" y1="2606.3792" x2="-2494.5127" y2="3085.7356" gradientTransform="matrix(-1 0 0 1 -644.2802 0)">
						<stop  offset="0" style="stop-color:#2B3582"/>
						<stop  offset="1" style="stop-color:#150E42"/>
					</linearGradient>
					<path style="fill:url(#SVGID_00000010305430986998936560000013318617436544925876_);" d="M1578.683,2764.943
						c2.698,0,4.973-2.094,5.145-4.833l7.973-125.707c0.181-2.839-1.973-5.286-4.822-5.467c-2.99-0.232-5.285,1.983-5.467,4.823
						l-7.973,125.708c-0.181,2.838,1.973,5.284,4.822,5.465C1578.472,2764.943,1578.583,2764.943,1578.683,2764.943z"/>
					
						<linearGradient id="SVGID_00000042699054856163334480000000145487568303763875_" gradientUnits="userSpaceOnUse" x1="-2152.771" y1="2614.5422" x2="-2482.6511" y2="3093.8989" gradientTransform="matrix(-1 0 0 1 -644.2802 0)">
						<stop  offset="0" style="stop-color:#2B3582"/>
						<stop  offset="1" style="stop-color:#150E42"/>
					</linearGradient>
					<path style="fill:url(#SVGID_00000042699054856163334480000000145487568303763875_);" d="M1562.274,2764.943
						c2.768,0,5.064-2.195,5.155-4.984l4.177-128.113c0.09-2.85-2.144-5.235-4.983-5.327c-3.283-0.161-5.225,2.145-5.326,4.983
						l-4.178,128.114c-0.091,2.849,2.145,5.235,4.984,5.326C1562.103,2764.943,1562.223,2764.943,1562.274,2764.943z"/>
					
						<linearGradient id="SVGID_00000150102558997211224530000014790553325803371197_" gradientUnits="userSpaceOnUse" x1="-2138.4592" y1="2624.3911" x2="-2468.3394" y2="3103.7476" gradientTransform="matrix(-1 0 0 1 -644.2802 0)">
						<stop  offset="0" style="stop-color:#2B3582"/>
						<stop  offset="1" style="stop-color:#150E42"/>
					</linearGradient>
					<path style="fill:url(#SVGID_00000150102558997211224530000014790553325803371197_);" d="M1540.026,2764.932
						c-2.849-0.131-5.043-2.547-4.903-5.385c2.044-43.038,5.94-125.125,6-127.923c0.021-2.82,2.326-5.105,5.155-5.105
						c2.849,0,5.155,2.306,5.155,5.155c0,2.124-5.014,107.295-6.02,128.355c-0.131,2.769-2.406,4.913-5.145,4.913
						C1540.187,2764.943,1540.106,2764.943,1540.026,2764.932z M1541.022,2631.675h0.101H1541.022z"/>
					
						<linearGradient id="SVGID_00000163767533145886021150000003662183781324267167_" gradientUnits="userSpaceOnUse" x1="-2113.7041" y1="2641.427" x2="-2443.5835" y2="3120.7825" gradientTransform="matrix(-1 0 0 1 -644.2802 0)">
						<stop  offset="0" style="stop-color:#2B3582"/>
						<stop  offset="1" style="stop-color:#150E42"/>
					</linearGradient>
					<path style="fill:url(#SVGID_00000163767533145886021150000003662183781324267167_);" d="M1505.908,2770.097
						c5.528,0,10.098-4.38,10.289-9.946c4.359-124.127,3.594-126.927,3.091-128.779c-1.49-5.506-7.208-8.737-12.655-7.238
						c-5.044,1.379-8.195,6.272-7.51,11.315c0.332,7.46-1.973,79.681-3.523,123.977c-0.201,5.688,4.249,10.47,9.936,10.661
						C1505.657,2770.097,1505.787,2770.097,1505.908,2770.097z"/>
					
						<linearGradient id="SVGID_00000081629251780957083600000009508211315249524620_" gradientUnits="userSpaceOnUse" x1="-2097.3811" y1="2652.6599" x2="-2427.2612" y2="3132.0164" gradientTransform="matrix(-1 0 0 1 -644.2802 0)">
						<stop  offset="0" style="stop-color:#2B3582"/>
						<stop  offset="1" style="stop-color:#150E42"/>
					</linearGradient>
					<path style="fill:url(#SVGID_00000081629251780957083600000009508211315249524620_);" d="M1483.569,2764.943
						c2.85,0,5.155-2.305,5.155-5.155v-125.707c0-2.85-2.305-5.155-5.155-5.155c-2.849,0-5.153,2.305-5.153,5.155v125.707
						C1478.416,2762.638,1480.72,2764.943,1483.569,2764.943z"/>
					
						<linearGradient id="SVGID_00000174589794060672390080000013828991625821974922_" gradientUnits="userSpaceOnUse" x1="-2087.2478" y1="2659.634" x2="-2417.1257" y2="3138.9873" gradientTransform="matrix(-1 0 0 1 -644.2802 0)">
						<stop  offset="0" style="stop-color:#2B3582"/>
						<stop  offset="1" style="stop-color:#150E42"/>
					</linearGradient>
					<path style="fill:url(#SVGID_00000174589794060672390080000013828991625821974922_);" d="M1465.529,2764.943
						c2.798,0,5.094-2.235,5.154-5.034c0.987-43.68,3.292-115.027,5.356-123.603c0.905-1.621,0.896-3.675-0.191-5.346
						c-1.561-2.396-4.752-3.04-7.138-1.48c-2.809,1.841-5.477,3.584-8.336,130.188c-0.06,2.849,2.194,5.205,5.034,5.275H1465.529z"
						/>
					
						<linearGradient id="SVGID_00000093154429248451582480000006654486560225699488_" gradientUnits="userSpaceOnUse" x1="-2181.6062" y1="2594.6995" x2="-2511.4846" y2="3074.0535" gradientTransform="matrix(-1 0 0 1 -644.2802 0)">
						<stop  offset="0" style="stop-color:#2B3582"/>
						<stop  offset="1" style="stop-color:#150E42"/>
					</linearGradient>
					<path style="fill:url(#SVGID_00000093154429248451582480000006654486560225699488_);" d="M1606.418,2776.389
						c5.446,0,9.997-4.268,10.289-9.775l6.876-132c0.292-5.687-4.077-10.53-9.765-10.832c-5.396-0.382-10.53,4.078-10.832,9.766
						l-6.875,132c-0.292,5.688,4.077,10.53,9.764,10.832C1606.056,2776.389,1606.237,2776.389,1606.418,2776.389z"/>
				</g>
			</g>
			<g>
				
					<linearGradient id="SVGID_00000116951776479039471800000005032816973573665432_" gradientUnits="userSpaceOnUse" x1="-2551.3459" y1="1632.1542" x2="-687.6518" y2="2932.4063" gradientTransform="matrix(-1 0 0 1 -644.2802 0)">
					<stop  offset="0" style="stop-color:#FDF53F"/>
					<stop  offset="1" style="stop-color:#D93C65"/>
				</linearGradient>
				<path style="fill:url(#SVGID_00000116951776479039471800000005032816973573665432_);" d="M1614.076,2349.55v-398.834
					c0-52.401-42.112-95.038-94.509-95.609c-157.259-1.712-481.597-1.798-746.976,20.565c-36.213,3.051-64.382,32.733-65.694,69.051
					l-24.803,385.592c-1.844,51.002,38.48,93.613,89.507,94.582l751.135,14.274
					C1572.898,2440.124,1614.076,2399.721,1614.076,2349.55z"/>
				<path style="fill:#FFFFFF;" d="M1522.993,1993.868c0.669,33.937-0.339,87.782-1.164,122.571
					c-0.43,18.098-16.319,31.892-34.301,29.784l-129.419-15.169c-17.24-2.02-29.387-17.91-26.814-35.078l15.885-105.974
					c2.256-15.044,15.179-26.175,30.392-26.175h114.695C1508.98,1963.828,1522.663,1977.158,1522.993,1993.868z"/>
				<path style="opacity:0.37;fill:#FFFFFF;" d="M1184.779,2194.703l-107.959,11.646c-15.106,1.631-27.996-10.828-26.883-25.981
					l23.601-321.144c45.256-1.435,89.895-2.482,132.968-3.217v314.497C1206.506,2182.936,1197.139,2193.369,1184.779,2194.703z"/>
				<path style="fill:#FFFFFF;" d="M1140.531,2139.042c-0.333,5.777-5.119,10.231-10.831,10.231c-0.213,0-0.425-0.008-0.637-0.022
					c-5.988-0.346-10.562-5.479-10.209-11.467l16.279-280.283c7.299-0.18,14.539-0.343,21.778-0.504L1140.531,2139.042z"/>
				<g>
					
						<linearGradient id="SVGID_00000116200521603712577370000013193163003689856703_" gradientUnits="userSpaceOnUse" x1="-2066.4568" y1="1983.6771" x2="-2298.123" y2="2320.3169" gradientTransform="matrix(-1 0 0 1 -644.2802 0)">
						<stop  offset="0" style="stop-color:#2B3582"/>
						<stop  offset="1" style="stop-color:#150E42"/>
					</linearGradient>
					<path style="fill:url(#SVGID_00000116200521603712577370000013193163003689856703_);" d="M1463.141,2095.032
						c1.895,0,3.492-1.47,3.614-3.394l5.599-88.281c0.127-1.994-1.386-3.712-3.386-3.839c-2.1-0.163-3.711,1.392-3.839,3.386
						l-5.6,88.282c-0.126,1.993,1.386,3.711,3.387,3.838C1462.992,2095.032,1463.071,2095.032,1463.141,2095.032z"/>
					
						<linearGradient id="SVGID_00000055683012673781737560000014052671791744909987_" gradientUnits="userSpaceOnUse" x1="-2058.127" y1="1989.4098" x2="-2289.7932" y2="2326.0496" gradientTransform="matrix(-1 0 0 1 -644.2802 0)">
						<stop  offset="0" style="stop-color:#2B3582"/>
						<stop  offset="1" style="stop-color:#150E42"/>
					</linearGradient>
					<path style="fill:url(#SVGID_00000055683012673781737560000014052671791744909987_);" d="M1451.618,2095.032
						c1.944,0,3.556-1.541,3.62-3.499l2.934-89.971c0.064-2.002-1.506-3.676-3.499-3.741c-2.306-0.113-3.67,1.506-3.74,3.5
						l-2.935,89.971c-0.064,2,1.506,3.677,3.5,3.74C1451.497,2095.032,1451.581,2095.032,1451.618,2095.032z"/>
					
						<linearGradient id="SVGID_00000021835956074980356770000015533856167992261295_" gradientUnits="userSpaceOnUse" x1="-2048.0759" y1="1996.3263" x2="-2279.7429" y2="2332.9668" gradientTransform="matrix(-1 0 0 1 -644.2802 0)">
						<stop  offset="0" style="stop-color:#2B3582"/>
						<stop  offset="1" style="stop-color:#150E42"/>
					</linearGradient>
					<path style="fill:url(#SVGID_00000021835956074980356770000015533856167992261295_);" d="M1435.993,2095.025
						c-2-0.092-3.542-1.789-3.443-3.782c1.435-30.224,4.171-87.871,4.213-89.837c0.015-1.98,1.634-3.585,3.62-3.585
						c2.001,0,3.62,1.619,3.62,3.62c0,1.492-3.521,75.352-4.228,90.142c-0.092,1.944-1.69,3.45-3.613,3.45
						C1436.106,2095.032,1436.049,2095.032,1435.993,2095.025z M1436.692,2001.441h0.07H1436.692z"/>
					
						<linearGradient id="SVGID_00000016056029377816976910000016996988269391766160_" gradientUnits="userSpaceOnUse" x1="-2030.691" y1="2008.2904" x2="-2262.3572" y2="2344.9299" gradientTransform="matrix(-1 0 0 1 -644.2802 0)">
						<stop  offset="0" style="stop-color:#2B3582"/>
						<stop  offset="1" style="stop-color:#150E42"/>
					</linearGradient>
					<path style="fill:url(#SVGID_00000016056029377816976910000016996988269391766160_);" d="M1412.033,2098.652
						c3.882,0,7.092-3.076,7.226-6.985c3.061-87.172,2.524-89.138,2.17-90.438c-1.046-3.867-5.062-6.137-8.886-5.083
						c-3.542,0.968-5.755,4.405-5.274,7.946c0.233,5.239-1.386,55.958-2.475,87.066c-0.142,3.994,2.983,7.353,6.978,7.487
						C1411.856,2098.652,1411.948,2098.652,1412.033,2098.652z"/>
					
						<linearGradient id="SVGID_00000018935026115704182170000002638872381109255601_" gradientUnits="userSpaceOnUse" x1="-2019.228" y1="2016.1788" x2="-2250.8945" y2="2352.8186" gradientTransform="matrix(-1 0 0 1 -644.2802 0)">
						<stop  offset="0" style="stop-color:#2B3582"/>
						<stop  offset="1" style="stop-color:#150E42"/>
					</linearGradient>
					<path style="fill:url(#SVGID_00000018935026115704182170000002638872381109255601_);" d="M1396.344,2095.032
						c2.001,0,3.62-1.619,3.62-3.62v-88.281c0-2.001-1.619-3.62-3.62-3.62c-2,0-3.619,1.619-3.619,3.62v88.281
						C1392.726,2093.414,1394.344,2095.032,1396.344,2095.032z"/>
					
						<linearGradient id="SVGID_00000166634091291437525120000001515833757298450851_" gradientUnits="userSpaceOnUse" x1="-2012.1113" y1="2021.0768" x2="-2243.7766" y2="2357.7148" gradientTransform="matrix(-1 0 0 1 -644.2802 0)">
						<stop  offset="0" style="stop-color:#2B3582"/>
						<stop  offset="1" style="stop-color:#150E42"/>
					</linearGradient>
					<path style="fill:url(#SVGID_00000166634091291437525120000001515833757298450851_);" d="M1383.676,2095.032
						c1.965,0,3.578-1.569,3.62-3.535c0.693-30.676,2.313-80.781,3.761-86.804c0.636-1.138,0.63-2.581-0.134-3.754
						c-1.096-1.682-3.337-2.135-5.012-1.039c-1.972,1.293-3.846,2.517-5.854,91.427c-0.042,2.001,1.541,3.655,3.536,3.705H1383.676z
						"/>
					
						<linearGradient id="SVGID_00000073719781693115421190000003425500581740069781_" gradientUnits="userSpaceOnUse" x1="-2078.3767" y1="1975.4746" x2="-2310.0432" y2="2312.1145" gradientTransform="matrix(-1 0 0 1 -644.2802 0)">
						<stop  offset="0" style="stop-color:#2B3582"/>
						<stop  offset="1" style="stop-color:#150E42"/>
					</linearGradient>
					<path style="fill:url(#SVGID_00000073719781693115421190000003425500581740069781_);" d="M1482.619,2103.071
						c3.825,0,7.021-2.998,7.226-6.865l4.828-92.7c0.205-3.995-2.863-7.395-6.857-7.607c-3.789-0.268-7.395,2.864-7.607,6.858
						l-4.829,92.7c-0.205,3.995,2.863,7.395,6.857,7.607C1482.364,2103.071,1482.491,2103.071,1482.619,2103.071z"/>
				</g>
			</g>
		</g>
		<g>
			<g>
				
					<linearGradient id="SVGID_00000001661692230519846860000006050593139482849439_" gradientUnits="userSpaceOnUse" x1="2716.9448" y1="960.9289" x2="3107.2292" y2="960.9289">
					<stop  offset="0" style="stop-color:#F9B776"/>
					<stop  offset="1" style="stop-color:#F47960"/>
				</linearGradient>
				<path style="fill:url(#SVGID_00000001661692230519846860000006050593139482849439_);" d="M2717.117,1076.922l302.751-236.855
					c1.096-0.856,1.903-2.028,2.31-3.357l18.787-61.357c0.507-1.654,1.627-3.052,3.132-3.907l12.203-6.932
					c1.215-0.69,2.613-0.987,4.003-0.852l37.936,3.694c3.063,0.298,5.54,2.623,6.031,5.661l2.872,17.748
					c0.28,1.729-0.121,3.499-1.117,4.938l-5.092,7.355c-1.463,2.113-1.604,4.871-0.365,7.123l0,0
					c1.382,2.512,1.052,5.623-0.861,7.757c-6.278,7.001-22.09,22.479-47.406,33.325c-0.867,0.371-1.66,0.92-2.299,1.614
					l-290.135,305.279C2757.284,1160.964,2713.878,1079.45,2717.117,1076.922z"/>
				
					<linearGradient id="SVGID_00000012431613117369191880000017238642525468319131_" gradientUnits="userSpaceOnUse" x1="3062.8179" y1="809.1705" x2="3097.2966" y2="809.1705">
					<stop  offset="0" style="stop-color:#F9B776"/>
					<stop  offset="1" style="stop-color:#F47960"/>
				</linearGradient>
				<path style="fill:url(#SVGID_00000012431613117369191880000017238642525468319131_);" d="M3064.382,817.206
					c-0.255,0-0.513-0.063-0.752-0.194c-0.758-0.416-1.035-1.368-0.618-2.125c0.375-0.686,9.349-16.719,20.614-13.265
					c8.82,2.713,11.289,1.697,11.316,1.688c0.715-0.479,1.628-0.25,2.11,0.471c0.479,0.718,0.224,1.726-0.496,2.206
					c-0.695,0.464-3.751,1.736-13.85-1.371c-8.857-2.738-16.872,11.634-16.952,11.779
					C3065.47,816.912,3064.934,817.206,3064.382,817.206z"/>
				
					<linearGradient id="SVGID_00000161621176085264853160000005373997539323308186_" gradientUnits="userSpaceOnUse" x1="2895.5803" y1="808.422" x2="2712.5059" y2="1113.2318">
					<stop  offset="0" style="stop-color:#FDF53F"/>
					<stop  offset="1" style="stop-color:#D93C65"/>
				</linearGradient>
				<path style="fill:url(#SVGID_00000161621176085264853160000005373997539323308186_);" d="M2717.969,1076.208l-136.803,114.643
					l42.341,97.879l153.734-142.224C2747.554,1126.133,2726.925,1102.969,2717.969,1076.208z"/>
			</g>
			<g>
				
					<linearGradient id="SVGID_00000178196191084477284280000009294613538003451021_" gradientUnits="userSpaceOnUse" x1="1803.239" y1="2322.2461" x2="1835.928" y2="2322.2461">
					<stop  offset="0" style="stop-color:#53D8FF"/>
					<stop  offset="1" style="stop-color:#3840F7"/>
				</linearGradient>
				<path style="fill:url(#SVGID_00000178196191084477284280000009294613538003451021_);" d="M1822.939,2257.5
					c1.289-17.336,6.951-29.534,12.989-37.845c-12.912,4.217-17.772,13.813-20.779,39.476
					c-3.577,30.522-9.985,113.168-11.67,131.459c-1.686,18.291,5.855,27.25,11.67,33.2c1.913,1.958,4.924,1.052,8.472-1.729
					c-7.255-9.271-10.151-18.729-11.601-26.519C1809.733,2383.257,1819.935,2297.889,1822.939,2257.5z"/>
				
					<linearGradient id="SVGID_00000126312587365216500170000015240095174344600482_" gradientUnits="userSpaceOnUse" x1="1811.689" y1="2313.2568" x2="1908.4923" y2="2313.2568">
					<stop  offset="0" style="stop-color:#2B3582"/>
					<stop  offset="1" style="stop-color:#150E42"/>
				</linearGradient>
				<path style="fill:url(#SVGID_00000126312587365216500170000015240095174344600482_);" d="M1907.37,2233.531l-22.432-29.078
					c0,0-21.529,10.256-40.796,13.293c-3.067,0.484-5.769,1.11-8.214,1.909c-6.038,8.31-11.7,20.508-12.989,37.845
					c-3.004,40.389-13.206,125.757-10.919,138.042c1.45,7.79,4.347,17.248,11.601,26.519c7.235-5.672,16.736-19.269,23.941-33.165
					c10.738-20.71,47.123-82.698,55.654-105.84C1911.746,2259.913,1907.37,2233.531,1907.37,2233.531z"/>
			</g>
			<g>
				
					<linearGradient id="SVGID_00000006693937694914372030000015686866091814422664_" gradientUnits="userSpaceOnUse" x1="2169.6992" y1="2033.8409" x2="2231.6919" y2="2033.8409">
					<stop  offset="0" style="stop-color:#53D8FF"/>
					<stop  offset="1" style="stop-color:#3840F7"/>
				</linearGradient>
				<path style="fill:url(#SVGID_00000006693937694914372030000015686866091814422664_);" d="M2212.62,1969.318
					c4.14-16.884,11.742-27.978,19.072-35.173c-13.431,2.022-19.812,10.682-27.025,35.492
					c-8.578,29.509-28.572,109.956-33.261,127.716c-4.689,17.76,1.266,27.843,6.015,34.674c1.563,2.248,4.682,1.852,8.642-0.303
					c-5.621-10.344-6.912-20.151-7.053-28.073C2178.788,2091.156,2202.974,2008.654,2212.62,1969.318z"/>
				
					<linearGradient id="SVGID_00000088824165699379984310000001074307755271196862_" gradientUnits="userSpaceOnUse" x1="2179.0088" y1="2029.4928" x2="2299.8533" y2="2029.4928">
					<stop  offset="0" style="stop-color:#2B3582"/>
					<stop  offset="1" style="stop-color:#150E42"/>
				</linearGradient>
				<path style="fill:url(#SVGID_00000088824165699379984310000001074307755271196862_);" d="M2299.853,1959.651l-17.312-32.389
					c0,0-22.93,6.553-42.433,6.36c-3.105-0.031-5.873,0.14-8.417,0.524c-7.33,7.196-14.932,18.289-19.072,35.173
					c-9.646,39.335-33.832,121.838-33.609,134.332c0.141,7.923,1.432,17.729,7.053,28.073c8.074-4.397,19.693-16.235,29.099-28.747
					c14.017-18.648,60.157-73.761,72.4-95.172C2299.804,1986.393,2299.853,1959.651,2299.853,1959.651z"/>
			</g>
			
				<linearGradient id="SVGID_00000090997130852101804540000016187458322074386324_" gradientUnits="userSpaceOnUse" x1="1866.3837" y1="2214.1926" x2="1954.0913" y2="2214.1926">
				<stop  offset="0" style="stop-color:#F9B776"/>
				<stop  offset="1" style="stop-color:#F47960"/>
			</linearGradient>
			<path style="fill:url(#SVGID_00000090997130852101804540000016187458322074386324_);" d="M1907.37,2162.772
				c-3.932,5.153-32.593,57.294-38.796,68.603c-1.042,1.899-1.733,3.95-1.993,6.101c-0.709,5.872-0.113,17.098,12.232,25.278
				c7.552,5.004,17.711,3.28,23.19-3.935l52.088-68.585L1907.37,2162.772z"/>
			
				<linearGradient id="SVGID_00000003817709943011274340000000093449320934409646_" gradientUnits="userSpaceOnUse" x1="2257.8677" y1="1939.1198" x2="2346.3989" y2="1939.1198">
				<stop  offset="0" style="stop-color:#F9B776"/>
				<stop  offset="1" style="stop-color:#F47960"/>
			</linearGradient>
			<path style="fill:url(#SVGID_00000003817709943011274340000000093449320934409646_);" d="M2311.561,1889.868
				c-4.73,4.431-41.624,51.111-49.613,61.238c-1.342,1.701-2.363,3.609-2.975,5.687c-1.671,5.674-2.94,16.843,7.881,26.954
				c6.619,6.185,16.924,6.165,23.521-0.043l56.023-64.633L2311.561,1889.868z"/>
			
				<linearGradient id="SVGID_00000168099870348991818530000007444799179978744736_" gradientUnits="userSpaceOnUse" x1="2743.1213" y1="1344.3019" x2="2170.2771" y2="1898.3651">
				<stop  offset="0" style="stop-color:#2B3582"/>
				<stop  offset="1" style="stop-color:#150E42"/>
			</linearGradient>
			<path style="fill:url(#SVGID_00000168099870348991818530000007444799179978744736_);" d="M2381.769,1643.996
				c0-14.472,83.041-9.33,155.837-17.745c38.23-4.419,60.889,41.552,34.107,69.189l-220.455,227.493
				c-4.615,4.762-11.539,6.553-17.844,4.499c-8.657-2.821-21.203-8.005-32.348-16.789c-6.507-5.128-7.672-14.565-2.911-21.344
				l101.338-144.286l-92.452,26.667L1956.2,2205.647c-5.796,7.169-16.017,8.872-23.827,3.973
				c-10.327-6.478-24.088-16.232-33.167-27.039c-4.787-5.699-5.097-13.918-1.021-20.146
				c38.705-59.135,249.036-381.327,259.01-414.792c10.988-36.864,51.353-104.371,89.088-106.777
				C2284.018,1638.46,2381.769,1643.996,2381.769,1643.996z"/>
			
				<linearGradient id="SVGID_00000016776180219911971640000007119823604035587471_" gradientUnits="userSpaceOnUse" x1="2442.8733" y1="1732.9608" x2="2350.5249" y2="1812.7876">
				<stop  offset="0" style="stop-color:#2B3582"/>
				<stop  offset="1" style="stop-color:#150E42"/>
			</linearGradient>
			<path style="fill:url(#SVGID_00000016776180219911971640000007119823604035587471_);" d="M2405.03,1743.099
				c-1.039,0-1.988-0.694-2.268-1.745c-0.332-1.253,0.414-2.539,1.668-2.872l83.171-22.052c1.261-0.329,2.54,0.416,2.872,1.667
				c0.332,1.254-0.414,2.539-1.668,2.872l-83.171,22.052C2405.432,1743.074,2405.229,1743.099,2405.03,1743.099z"/>
			
				<linearGradient id="SVGID_00000127752907909880902150000010978908289960570769_" gradientUnits="userSpaceOnUse" x1="2335.3608" y1="1738.1644" x2="2285.7952" y2="1809.1217">
				<stop  offset="0" style="stop-color:#2B3582"/>
				<stop  offset="1" style="stop-color:#150E42"/>
			</linearGradient>
			<path style="fill:url(#SVGID_00000127752907909880902150000010978908289960570769_);" d="M2315.303,1765.619
				c-0.57,0-1.14-0.206-1.591-0.622c-0.954-0.879-1.013-2.365-0.134-3.317l20.771-22.52c0.88-0.957,2.366-1.012,3.317-0.134
				c0.954,0.879,1.013,2.364,0.135,3.317l-20.771,22.52C2316.566,1765.365,2315.936,1765.619,2315.303,1765.619z"/>
			
				<linearGradient id="SVGID_00000083062706426905400780000008061821734384132750_" gradientUnits="userSpaceOnUse" x1="3408.7219" y1="249.0861" x2="2515.6511" y2="1346.9675">
				<stop  offset="0" style="stop-color:#FDF53F"/>
				<stop  offset="1" style="stop-color:#D93C65"/>
			</linearGradient>
			<path style="fill:url(#SVGID_00000083062706426905400780000008061821734384132750_);" d="M2623.507,1186.697
				c0,0,43.949,44.877,36.389,122.289c-2.225,22.779-11.14,44.404-25.16,62.494l-221.848,286.246
				c-5.117,6.603-12.645,10.906-20.937,11.924c-32.629,4.003-119.402,11.825-180.804-8.519c-4.884-1.619-7.006-7.365-4.464-11.838
				l201.673-354.864l122.156-142.134C2530.51,1152.295,2588.735,1132.286,2623.507,1186.697z"/>
			
				<linearGradient id="SVGID_00000095320799357686806650000013477862579245242544_" gradientUnits="userSpaceOnUse" x1="2076.0579" y1="1425.9546" x2="2000.2892" y2="1519.9077">
				<stop  offset="0" style="stop-color:#F9C200"/>
				<stop  offset="0.9964" style="stop-color:#9B1E5F"/>
			</linearGradient>
			<path style="fill:url(#SVGID_00000095320799357686806650000013477862579245242544_);" d="M1985.912,1507.35
				c-1.195,0-2.354-0.637-2.965-1.761c-0.891-1.635-0.285-3.682,1.351-4.571c0.856-0.466,85.947-46.797,103.99-61.731
				c1.435-1.185,3.561-0.986,4.747,0.448c1.187,1.434,0.986,3.559-0.448,4.747c-18.545,15.348-101.545,60.543-105.07,62.459
				C1987.008,1507.219,1986.455,1507.35,1985.912,1507.35z"/>
			<g>
				
					<linearGradient id="SVGID_00000131343206121319084800000018366687683377189547_" gradientUnits="userSpaceOnUse" x1="2440.1038" y1="127.5644" x2="2550.366" y2="14.4383" gradientTransform="matrix(0.963 0.2697 -0.2697 0.963 221.0895 393.242)">
					<stop  offset="0" style="stop-color:#F9B776"/>
					<stop  offset="1" style="stop-color:#F47960"/>
				</linearGradient>
				<path style="fill:url(#SVGID_00000131343206121319084800000018366687683377189547_);" d="M2634.17,1053.234l-66.294,93.607
					c-4.31,6.085-3.723,14.336,1.375,19.778c8.932,9.534,23.994,22.968,40.23,26.036c5.042,0.953,10.172-1.163,12.972-5.463
					l35.256-54.119C2657.71,1133.073,2664.46,1048.059,2634.17,1053.234z"/>
				
					<linearGradient id="SVGID_00000166655764065761601640000008391076000394620305_" gradientUnits="userSpaceOnUse" x1="1951.2699" y1="1601.1637" x2="1811.6522" y2="1785.8666" gradientTransform="matrix(0.6854 -0.7281 0.7281 0.6854 131.4849 1318.7853)">
					<stop  offset="0" style="stop-color:#F9B776"/>
					<stop  offset="1" style="stop-color:#F47960"/>
				</linearGradient>
				<path style="fill:url(#SVGID_00000166655764065761601640000008391076000394620305_);" d="M2652.884,975.001
					c1.34,1.262,56.563,109.706,56.563,109.706l-62.591,30.215l-67.61-95.007C2579.246,1019.915,2630.446,953.88,2652.884,975.001z"
					/>
				
					<linearGradient id="SVGID_00000122722626146002544310000004826716573715145140_" gradientUnits="userSpaceOnUse" x1="1844.6412" y1="1645.52" x2="1997.3972" y2="1645.52" gradientTransform="matrix(0.6854 -0.7281 0.7281 0.6854 131.4849 1318.7853)">
					<stop  offset="0" style="stop-color:#2B3582"/>
					<stop  offset="1" style="stop-color:#150E42"/>
				</linearGradient>
				<path style="fill:url(#SVGID_00000122722626146002544310000004826716573715145140_);" d="M2607.69,1031.315l31.217,52.037
					c0.473,0.789,1.038,1.503,1.712,2.131c3.715,3.459,16.43,13.519,26.26-0.178c8.377-11.674,16.238-22.288,24.661-26.665
					c4.918-2.556,10.971-0.514,13.468,4.434c5.143,10.194,15.106,30.973,21.364,50.678c1.569,4.939-0.98,10.241-5.783,12.187
					c-12.674,5.135-37.722,14.421-59.95,17.489c-3.651,0.504-7.266-1.036-9.439-4.013c-9.563-13.101-36.517-49.712-45.716-58.876
					c-8.547-8.514-24.32-5.304-31.427-3.261c-2.698,0.775-5.571,0.402-7.975-1.046c-7.211-4.344-19.796-15.16-8.283-33.472
					c2.863-4.553,1.403-10.618-3.09-13.574c-8.051-5.296-16.788-15.237-8.464-31.336c8.426-16.297,23.473-17.76,33.721-16.508
					c4.534,0.554,9.138-1.824,10.878-6.049c1.769-4.293,6.505-2.616,8.797-5.542c2.009-2.564,1.451-4.345,2.74-6.627
					c4.123-7.302,3.842-13.172,13.308-17.336c7.334-3.225,15.705-3.331,23.612-2.038c4.383,0.717,8.822,1.903,12.38,4.561
					c3.177,2.373,5.429,5.748,7.618,9.054c4.555,6.881,9.301,15.22,6.315,22.913c-4.5,11.592-23.802,13.722-34.014,17.315
					c-12.687,4.464-19.751,12.263-24.659,24.953C2605.822,1025.434,2606.097,1028.659,2607.69,1031.315z"/>
				
					<linearGradient id="SVGID_00000076588733799230184840000005429956999186571944_" gradientUnits="userSpaceOnUse" x1="1746.7845" y1="1747.4341" x2="1858.7693" y2="1632.5408" gradientTransform="matrix(0.6854 -0.7281 0.7281 0.6854 131.4849 1318.7853)">
					<stop  offset="0" style="stop-color:#F9B776"/>
					<stop  offset="1" style="stop-color:#F47960"/>
				</linearGradient>
				<path style="fill:url(#SVGID_00000076588733799230184840000005429956999186571944_);" d="M2617.208,1099.647
					c0,0-12.008-35.137-27.38-33.847c-15.372,1.29-27.469,16.603-8.419,33.818
					C2605.105,1121.031,2617.208,1099.647,2617.208,1099.647z"/>
			</g>
			<g>
				
					<linearGradient id="SVGID_00000143591769440903429680000007445206918623631523_" gradientUnits="userSpaceOnUse" x1="993.759" y1="1309.6322" x2="2084.4675" y2="2070.5918" gradientTransform="matrix(-1 0 0 1 3835.4585 0)">
					<stop  offset="0" style="stop-color:#FDF53F"/>
					<stop  offset="1" style="stop-color:#D93C65"/>
				</linearGradient>
				<path style="fill:url(#SVGID_00000143591769440903429680000007445206918623631523_);" d="M2856.117,1599.792v-233.414
					c0-30.667-24.646-55.62-55.311-55.954c-92.034-1.002-281.85-1.052-437.16,12.036c-21.193,1.786-37.679,19.157-38.447,40.411
					l-14.516,225.664c-1.079,29.849,22.52,54.786,52.383,55.353l439.594,8.354C2832.019,1652.8,2856.117,1629.154,2856.117,1599.792
					z"/>
				<path style="fill:#FFFFFF;" d="M2802.812,1391.633c0.392,19.861-0.198,51.374-0.681,71.733
					c-0.251,10.592-9.551,18.664-20.074,17.431l-75.741-8.877c-10.09-1.182-17.199-10.482-15.693-20.529l9.297-62.02
					c1.32-8.805,8.883-15.318,17.787-15.318h67.124C2794.611,1374.052,2802.619,1381.854,2802.812,1391.633z"/>
				<path style="opacity:0.37;fill:#FFFFFF;" d="M2604.875,1509.17l-63.182,6.816c-8.841,0.955-16.384-6.337-15.733-15.205
					l13.812-187.946c26.486-0.84,52.611-1.452,77.819-1.883v184.056C2617.591,1502.283,2612.109,1508.389,2604.875,1509.17z"/>
				<path style="fill:#FFFFFF;" d="M2578.979,1476.594c-0.195,3.381-2.996,5.987-6.338,5.987c-0.125,0-0.249-0.005-0.373-0.013
					c-3.505-0.203-6.181-3.206-5.975-6.711l9.527-164.033c4.272-0.105,8.509-0.201,12.745-0.295L2578.979,1476.594z"/>
				<g>
					
						<linearGradient id="SVGID_00000075120762140735556690000006266975566671483779_" gradientUnits="userSpaceOnUse" x1="1091.6484" y1="1385.6688" x2="956.0681" y2="1582.6837" gradientTransform="matrix(-1 0 0 1 3835.4585 0)">
						<stop  offset="0" style="stop-color:#2B3582"/>
						<stop  offset="1" style="stop-color:#150E42"/>
					</linearGradient>
					<path style="fill:url(#SVGID_00000075120762140735556690000006266975566671483779_);" d="M2767.784,1450.838
						c1.109,0,2.044-0.86,2.115-1.986l3.277-51.665c0.074-1.167-0.811-2.172-1.982-2.247c-1.229-0.095-2.172,0.815-2.247,1.982
						l-3.277,51.666c-0.074,1.167,0.811,2.172,1.982,2.247C2767.697,1450.838,2767.743,1450.838,2767.784,1450.838z"/>
					
						<linearGradient id="SVGID_00000143575603248063738280000001156129618419501730_" gradientUnits="userSpaceOnUse" x1="1096.5234" y1="1389.0237" x2="960.9429" y2="1586.0388" gradientTransform="matrix(-1 0 0 1 3835.4585 0)">
						<stop  offset="0" style="stop-color:#2B3582"/>
						<stop  offset="1" style="stop-color:#150E42"/>
					</linearGradient>
					<path style="fill:url(#SVGID_00000143575603248063738280000001156129618419501730_);" d="M2761.04,1450.838
						c1.137,0,2.081-0.902,2.118-2.048l1.717-52.655c0.037-1.172-0.881-2.152-2.048-2.189c-1.349-0.066-2.148,0.882-2.189,2.048
						l-1.718,52.655c-0.037,1.171,0.882,2.152,2.048,2.189C2760.969,1450.838,2761.019,1450.838,2761.04,1450.838z"/>
					
						<linearGradient id="SVGID_00000098920771201766209140000008487319137687891117_" gradientUnits="userSpaceOnUse" x1="1102.4056" y1="1393.0715" x2="966.8249" y2="1590.0869" gradientTransform="matrix(-1 0 0 1 3835.4585 0)">
						<stop  offset="0" style="stop-color:#2B3582"/>
						<stop  offset="1" style="stop-color:#150E42"/>
					</linearGradient>
					<path style="fill:url(#SVGID_00000098920771201766209140000008487319137687891117_);" d="M2751.896,1450.834
						c-1.171-0.054-2.073-1.047-2.015-2.214c0.84-17.688,2.441-51.426,2.466-52.576c0.009-1.159,0.957-2.098,2.119-2.098
						c1.171,0,2.119,0.948,2.119,2.118c0,0.873-2.061,44.099-2.474,52.755c-0.054,1.138-0.989,2.019-2.115,2.019
						C2751.962,1450.838,2751.929,1450.838,2751.896,1450.834z M2752.305,1396.065h0.041H2752.305z"/>
					
						<linearGradient id="SVGID_00000137844000360556903050000014429752495664838838_" gradientUnits="userSpaceOnUse" x1="1112.58" y1="1400.0734" x2="976.9996" y2="1597.0883" gradientTransform="matrix(-1 0 0 1 3835.4585 0)">
						<stop  offset="0" style="stop-color:#2B3582"/>
						<stop  offset="1" style="stop-color:#150E42"/>
					</linearGradient>
					<path style="fill:url(#SVGID_00000137844000360556903050000014429752495664838838_);" d="M2737.874,1452.957
						c2.272,0,4.15-1.8,4.229-4.088c1.792-51.016,1.477-52.167,1.27-52.928c-0.612-2.263-2.962-3.591-5.201-2.975
						c-2.073,0.567-3.368,2.578-3.086,4.651c0.136,3.066-0.811,32.749-1.448,50.954c-0.083,2.337,1.746,4.303,4.084,4.382
						C2737.77,1452.957,2737.824,1452.957,2737.874,1452.957z"/>
					
						<linearGradient id="SVGID_00000141428285217757241280000012428017099370362795_" gradientUnits="userSpaceOnUse" x1="1119.2887" y1="1404.6901" x2="983.7081" y2="1601.7053" gradientTransform="matrix(-1 0 0 1 3835.4585 0)">
						<stop  offset="0" style="stop-color:#2B3582"/>
						<stop  offset="1" style="stop-color:#150E42"/>
					</linearGradient>
					<path style="fill:url(#SVGID_00000141428285217757241280000012428017099370362795_);" d="M2728.692,1450.838
						c1.171,0,2.119-0.947,2.119-2.119v-51.665c0-1.171-0.948-2.119-2.119-2.119c-1.171,0-2.118,0.948-2.118,2.119v51.665
						C2726.574,1449.891,2727.521,1450.838,2728.692,1450.838z"/>
					
						<linearGradient id="SVGID_00000054947772865241390700000005593617818760631454_" gradientUnits="userSpaceOnUse" x1="1123.4536" y1="1407.5565" x2="987.8736" y2="1604.5708" gradientTransform="matrix(-1 0 0 1 3835.4585 0)">
						<stop  offset="0" style="stop-color:#2B3582"/>
						<stop  offset="1" style="stop-color:#150E42"/>
					</linearGradient>
					<path style="fill:url(#SVGID_00000054947772865241390700000005593617818760631454_);" d="M2721.278,1450.838
						c1.15,0,2.094-0.918,2.118-2.069c0.406-17.953,1.354-47.276,2.201-50.801c0.372-0.666,0.368-1.51-0.079-2.197
						c-0.641-0.984-1.953-1.25-2.933-0.608c-1.154,0.757-2.251,1.473-3.426,53.507c-0.024,1.171,0.902,2.139,2.069,2.168H2721.278z"
						/>
					
						<linearGradient id="SVGID_00000155851018597106548730000002666712885334865076_" gradientUnits="userSpaceOnUse" x1="1084.6724" y1="1380.8682" x2="949.0918" y2="1577.8834" gradientTransform="matrix(-1 0 0 1 3835.4585 0)">
						<stop  offset="0" style="stop-color:#2B3582"/>
						<stop  offset="1" style="stop-color:#150E42"/>
					</linearGradient>
					<path style="fill:url(#SVGID_00000155851018597106548730000002666712885334865076_);" d="M2779.183,1455.543
						c2.239,0,4.109-1.754,4.229-4.018l2.825-54.252c0.12-2.338-1.676-4.328-4.013-4.452c-2.218-0.157-4.328,1.676-4.452,4.014
						l-2.826,54.252c-0.12,2.338,1.675,4.328,4.013,4.452C2779.034,1455.543,2779.109,1455.543,2779.183,1455.543z"/>
				</g>
			</g>
			<g>
				
					<linearGradient id="SVGID_00000041270062858602273260000000765582627665521046_" gradientUnits="userSpaceOnUse" x1="837.6865" y1="580.862" x2="1210.4727" y2="680.5943" gradientTransform="matrix(-1 0 0 1 4959.6289 0)">
					<stop  offset="0" style="stop-color:#FDF53F"/>
					<stop  offset="1" style="stop-color:#D93C65"/>
				</linearGradient>
				<path style="fill:url(#SVGID_00000041270062858602273260000000765582627665521046_);" d="M2677.689,978.624
					c-53.137-100.369-190.859-9.187-126.764,75.364C2598.58,1022.302,2652.43,975.199,2677.689,978.624z"/>
			</g>
			
				<linearGradient id="SVGID_00000105401580056702426780000014524969933183340716_" gradientUnits="userSpaceOnUse" x1="2082.8621" y1="1667.8246" x2="2496.2671" y2="1324.4313">
				<stop  offset="0" style="stop-color:#FDF53F"/>
				<stop  offset="1" style="stop-color:#D93C65"/>
			</linearGradient>
			<path style="fill:url(#SVGID_00000105401580056702426780000014524969933183340716_);" d="M2571.642,1304.177L2452.271,1243
				c0,0-85.227,84.018-107.03,198.232c25.05,1.846,70.635,8.361,115.253,30.89C2470.3,1418.193,2571.642,1304.177,2571.642,1304.177
				z"/>
			
				<linearGradient id="SVGID_00000028289314381655308180000012772487348842183296_" gradientUnits="userSpaceOnUse" x1="2022.3906" y1="1412.7715" x2="2727.3223" y2="1605.6746">
				<stop  offset="0" style="stop-color:#F9B776"/>
				<stop  offset="1" style="stop-color:#F47960"/>
			</linearGradient>
			<path style="fill:url(#SVGID_00000028289314381655308180000012772487348842183296_);" d="M2669.927,1503.701
				c0,0-148.853,84.125-199.079,12.292c-10.428-14.915-12.92-29.739-10.353-43.871c-44.618-22.529-90.203-29.044-115.253-30.89
				c-6.574,34.432-3.098,71.052,17.135,108.065c87.977,160.937,327.25-8.894,327.25-8.894L2669.927,1503.701z"/>
			
				<linearGradient id="SVGID_00000163764469767867378460000004209661825841145272_" gradientUnits="userSpaceOnUse" x1="556.0366" y1="1207.7202" x2="1260.9675" y2="1400.623" gradientTransform="matrix(-1 0 0 1 4298.5342 0)">
				<stop  offset="0" style="stop-color:#F9B776"/>
				<stop  offset="1" style="stop-color:#F47960"/>
			</linearGradient>
			<path style="fill:url(#SVGID_00000163764469767867378460000004209661825841145272_);" d="M2676.998,1546.54
				c-9.503,2.519-19.119-3.701-21.019-13.348c-2.972-15.087-6.634-38.224-3.69-48.872c4.565-16.509,13.409-37.735,42.89-33.018
				c29.481,4.717,64.256,17.135,64.256,17.135s-1.757,21.504-24.163,14.566l13.894,10.751c0,0-1.985,17.218-20.91,8.02
				l12.922,14.258c0,0-8.127,14.141-22.052,5.071C2707.645,1513.623,2701.092,1540.153,2676.998,1546.54z"/>
			
				<linearGradient id="SVGID_00000088127615787650326770000005107839987418956210_" gradientUnits="userSpaceOnUse" x1="3263.4934" y1="522.4771" x2="2164.7598" y2="1339.4838">
				<stop  offset="0" style="stop-color:#FDF53F"/>
				<stop  offset="1" style="stop-color:#D93C65"/>
			</linearGradient>
			<path style="fill:url(#SVGID_00000088127615787650326770000005107839987418956210_);" d="M1926.12,1525.483
				c-5.177,0.977-7.95,6.67-5.609,11.39c10.753,21.682,42.446,69.517,107.728,54.435c83.595-19.313,338.62-212.076,396.36-264.742
				c57.74-52.667,134.197-118.287,171.601-109.129c37.403,9.159,14.848-12.515-11.067-29.91
				c-25.916-17.394-35.537-42.931-16.24-38.159c0,0-46.53-15.099-117.595,24.065c-69.446,38.273-408.541,169.108-522.067,131.227
				c-4.201-1.401-8.643,1.302-9.406,5.664c-4.52,25.859-11.373,106.817,54.989,197.9
				C1974.813,1508.224,1948.953,1521.177,1926.12,1525.483z"/>
			
				<linearGradient id="SVGID_00000160908987688272046590000010854547104095257992_" gradientUnits="userSpaceOnUse" x1="1257.395" y1="624.5488" x2="1600.683" y2="716.3893">
				<stop  offset="0" style="stop-color:#FDF53F"/>
				<stop  offset="1" style="stop-color:#D93C65"/>
			</linearGradient>
			<path style="fill:url(#SVGID_00000160908987688272046590000010854547104095257992_);" d="M2594.692,1021.142l95.417-2.951
				c2.423-0.075,4.636-1.416,5.811-3.537c8.548-15.435,21.055-25.269,36.695-30.67c1.979-0.683,1.569-3.601-0.52-3.743
				l-58.498-3.979c-0.065-0.005-0.131-0.004-0.196,0.001c-29.154,2.241-54.963,19.782-79.582,42.761
				C2592.998,1019.791,2593.569,1021.177,2594.692,1021.142z"/>
		</g>
	</g>
</g>
</svg>
